<svg width="801" height="663" viewBox="0 0 801 663" fill="none" xmlns="http://www.w3.org/2000/svg">
  <mask id="mask0_15_2338" style="mask-type:alpha" maskUnits="userSpaceOnUse" x="0" y="-139"
    width="801" height="802">
    <line x1="29.5" y1="-138" x2="29.5" y2="663" stroke="black" />
    <line x1="53.5" y1="-138" x2="53.5" y2="663" stroke="black" />
    <line x1="77.5" y1="-138" x2="77.5" y2="663" stroke="black" />
    <line x1="101.5" y1="-138" x2="101.5" y2="663" stroke="black" />
    <line x1="125.5" y1="-138" x2="125.5" y2="663" stroke="black" />
    <line x1="149.5" y1="-138" x2="149.5" y2="663" stroke="black" />
    <line x1="173.5" y1="-138" x2="173.5" y2="663" stroke="black" />
    <line x1="197.5" y1="-138" x2="197.5" y2="663" stroke="black" />
    <line x1="221.5" y1="-138" x2="221.5" y2="663" stroke="black" />
    <line x1="245.5" y1="-138" x2="245.5" y2="663" stroke="black" />
    <line x1="269.5" y1="-138" x2="269.5" y2="663" stroke="black" />
    <line x1="293.5" y1="-138" x2="293.5" y2="663" stroke="black" />
    <line x1="317.5" y1="-138" x2="317.5" y2="663" stroke="black" />
    <line x1="341.5" y1="-138" x2="341.5" y2="663" stroke="black" />
    <line x1="365.5" y1="-138" x2="365.5" y2="663" stroke="black" />
    <line x1="389.5" y1="-138" x2="389.5" y2="663" stroke="black" />
    <line x1="413.5" y1="-138" x2="413.5" y2="663" stroke="black" />
    <line x1="437.5" y1="-138" x2="437.5" y2="663" stroke="black" />
    <line x1="461.5" y1="-138" x2="461.5" y2="663" stroke="black" />
    <line x1="485.5" y1="-138" x2="485.5" y2="663" stroke="black" />
    <line x1="509.5" y1="-138" x2="509.5" y2="663" stroke="black" />
    <line x1="533.5" y1="-138" x2="533.5" y2="663" stroke="black" />
    <line x1="557.5" y1="-138" x2="557.5" y2="663" stroke="black" />
    <line x1="581.5" y1="-138" x2="581.5" y2="663" stroke="black" />
    <line x1="605.5" y1="-138" x2="605.5" y2="663" stroke="black" />
    <line x1="629.5" y1="-138" x2="629.5" y2="663" stroke="black" />
    <line x1="653.5" y1="-138" x2="653.5" y2="663" stroke="black" />
    <line x1="677.5" y1="-138" x2="677.5" y2="663" stroke="black" />
    <line x1="701.5" y1="-138" x2="701.5" y2="663" stroke="black" />
    <line x1="725.5" y1="-138" x2="725.5" y2="663" stroke="black" />
    <line x1="749.5" y1="-138" x2="749.5" y2="663" stroke="black" />
    <line x1="773.5" y1="-138" x2="773.5" y2="663" stroke="black" />
    <line y1="633.5" x2="801" y2="633.5" stroke="black" />
    <line y1="609.5" x2="801" y2="609.5" stroke="black" />
    <line y1="585.5" x2="801" y2="585.5" stroke="black" />
    <line y1="561.5" x2="801" y2="561.5" stroke="black" />
    <line y1="537.5" x2="801" y2="537.5" stroke="black" />
    <line y1="513.5" x2="801" y2="513.5" stroke="black" />
    <line y1="489.5" x2="801" y2="489.5" stroke="black" />
    <line y1="465.5" x2="801" y2="465.5" stroke="black" />
    <line y1="441.5" x2="801" y2="441.5" stroke="black" />
    <line y1="417.5" x2="801" y2="417.5" stroke="black" />
    <line y1="393.5" x2="801" y2="393.5" stroke="black" />
    <line y1="369.5" x2="801" y2="369.5" stroke="black" />
    <line y1="345.5" x2="801" y2="345.5" stroke="black" />
    <line y1="321.5" x2="801" y2="321.5" stroke="black" />
    <line y1="297.5" x2="801" y2="297.5" stroke="black" />
    <line y1="273.5" x2="801" y2="273.5" stroke="black" />
    <line y1="249.5" x2="801" y2="249.5" stroke="black" />
    <line y1="225.5" x2="801" y2="225.5" stroke="black" />
    <line y1="201.5" x2="801" y2="201.5" stroke="black" />
    <line y1="177.5" x2="801" y2="177.5" stroke="black" />
    <line y1="153.5" x2="801" y2="153.5" stroke="black" />
    <line y1="129.5" x2="801" y2="129.5" stroke="black" />
    <line y1="105.5" x2="801" y2="105.5" stroke="black" />
    <line y1="81.4995" x2="801" y2="81.4995" stroke="black" />
    <line y1="57.4995" x2="801" y2="57.4995" stroke="black" />
    <line y1="33.4995" x2="801" y2="33.4995" stroke="black" />
    <line y1="9.49951" x2="801" y2="9.49951" stroke="black" />
  </mask>
  <g mask="url(#mask0_15_2338)">
    <ellipse cx="401" cy="263" rx="348" ry="223" fill="url(#paint0_radial_15_2338)" />
  </g>
  <defs>
    <radialGradient id="paint0_radial_15_2338" cx="0" cy="0" r="1" gradientUnits="userSpaceOnUse"
      gradientTransform="translate(401 263) rotate(90) scale(223 348)">
      <stop stop-color="#6CDDEE" stop-opacity="0.2" />
      <stop offset="1" stop-color="#6CDDEE" stop-opacity="0" />
    </radialGradient>
  </defs>
</svg>