<svg width="715" height="516" viewBox="0 0 715 516" fill="none" xmlns="http://www.w3.org/2000/svg">
  <g clip-path="url(#clip0_9_1938)">
    <g filter="url(#filter0_f_9_1938)">
      <ellipse cx="331.498" cy="278.427" rx="204.893" ry="157.302" fill="#B9E953" fill-opacity="0.5" />
    </g>
    <path opacity="0.2"
      d="M0 58C0 46.9543 8.95431 38 20 38H641C652.046 38 661 46.9543 661 58V277.977V496C661 507.046 652.046 516 641 516H332.388H20C8.9543 516 0 507.046 0 496V277.977V58Z"
      fill="#7C5EA3" />
    <path
      d="M34 21.073C34 10.0273 42.9543 1.073 54 1.073H371.273H694.352C705.398 1.073 714.352 10.0273 714.352 21.073V456.073C714.352 467.119 705.398 476.073 694.352 476.073H374.66H54C42.9543 476.073 34 467.119 34 456.073V21.073Z"
      fill="#171717" />
    <ellipse opacity="0.15" cx="582.734" cy="299.16" rx="343.563" ry="246.709"
      fill="url(#paint0_radial_9_1938)" />
    <circle cx="98.8082" cy="431.481" r="4.83995" fill="#FF0181" />
    <path
      d="M112.321 435.673V427.542H115.434C115.922 427.542 116.356 427.639 116.735 427.833C117.123 428.018 117.428 428.286 117.653 428.634C117.878 428.982 117.99 429.405 117.99 429.9V430.051C117.99 430.539 117.874 430.961 117.641 431.317C117.417 431.666 117.111 431.933 116.724 432.119C116.337 432.305 115.907 432.398 115.434 432.398H113.297V435.673H112.321ZM113.297 431.515H115.33C115.849 431.515 116.259 431.387 116.561 431.131C116.863 430.868 117.014 430.5 117.014 430.028V429.912C117.014 429.439 116.863 429.075 116.561 428.82C116.267 428.557 115.856 428.425 115.33 428.425H113.297V431.515ZM119.333 435.673V429.993H120.227V430.69H120.39C120.49 430.442 120.645 430.26 120.854 430.144C121.063 430.028 121.338 429.97 121.679 429.97H122.353V430.806H121.621C121.21 430.806 120.877 430.922 120.622 431.155C120.374 431.379 120.25 431.732 120.25 432.212V435.673H119.333ZM126.132 435.836C125.559 435.836 125.052 435.716 124.611 435.476C124.177 435.236 123.836 434.899 123.588 434.465C123.348 434.024 123.228 433.505 123.228 432.909V432.758C123.228 432.169 123.348 431.654 123.588 431.213C123.836 430.771 124.177 430.431 124.611 430.191C125.052 429.95 125.559 429.83 126.132 429.83C126.705 429.83 127.209 429.95 127.642 430.191C128.084 430.431 128.424 430.771 128.664 431.213C128.912 431.654 129.036 432.169 129.036 432.758V432.909C129.036 433.505 128.912 434.024 128.664 434.465C128.424 434.899 128.084 435.236 127.642 435.476C127.209 435.716 126.705 435.836 126.132 435.836ZM126.132 435.011C126.736 435.011 127.216 434.821 127.573 434.442C127.937 434.055 128.118 433.536 128.118 432.885V432.781C128.118 432.13 127.937 431.615 127.573 431.236C127.216 430.849 126.736 430.655 126.132 430.655C125.536 430.655 125.056 430.849 124.692 431.236C124.328 431.615 124.146 432.13 124.146 432.781V432.885C124.146 433.536 124.328 434.055 124.692 434.442C125.056 434.821 125.536 435.011 126.132 435.011ZM133.092 435.836C132.604 435.836 132.155 435.72 131.745 435.487C131.334 435.255 131.009 434.918 130.769 434.477C130.529 434.035 130.409 433.513 130.409 432.909V432.758C130.409 432.154 130.529 431.635 130.769 431.201C131.009 430.76 131.33 430.423 131.733 430.191C132.143 429.95 132.596 429.83 133.092 429.83C133.487 429.83 133.82 429.885 134.091 429.993C134.37 430.094 134.594 430.225 134.765 430.388C134.935 430.543 135.067 430.709 135.16 430.887H135.322V427.542H136.24V435.673H135.345V434.732H135.183C135.028 435.019 134.788 435.274 134.463 435.499C134.137 435.724 133.681 435.836 133.092 435.836ZM133.336 435.023C133.924 435.023 134.401 434.837 134.765 434.465C135.136 434.086 135.322 433.559 135.322 432.885V432.781C135.322 432.107 135.136 431.584 134.765 431.213C134.401 430.833 133.924 430.644 133.336 430.644C132.755 430.644 132.275 430.833 131.896 431.213C131.524 431.584 131.338 432.107 131.338 432.781V432.885C131.338 433.559 131.524 434.086 131.896 434.465C132.275 434.837 132.755 435.023 133.336 435.023ZM140.335 435.778C139.925 435.778 139.545 435.689 139.197 435.511C138.856 435.332 138.585 435.069 138.384 434.721C138.19 434.364 138.093 433.935 138.093 433.431V429.993H139.011V433.362C139.011 433.927 139.15 434.337 139.429 434.593C139.716 434.848 140.099 434.976 140.579 434.976C141.121 434.976 141.566 434.798 141.915 434.442C142.263 434.086 142.438 433.555 142.438 432.851V429.993H143.355V435.673H142.461V434.709H142.298C142.174 434.98 141.961 435.228 141.659 435.453C141.357 435.669 140.916 435.778 140.335 435.778ZM147.889 435.836C147.339 435.836 146.844 435.72 146.402 435.487C145.969 435.247 145.624 434.907 145.368 434.465C145.121 434.024 144.997 433.501 144.997 432.897V432.769C144.997 432.157 145.121 431.635 145.368 431.201C145.624 430.76 145.969 430.423 146.402 430.191C146.844 429.95 147.339 429.83 147.889 429.83C148.431 429.83 148.892 429.931 149.271 430.132C149.658 430.334 149.96 430.601 150.177 430.934C150.402 431.267 150.545 431.623 150.607 432.003L149.713 432.188C149.674 431.91 149.581 431.654 149.434 431.422C149.295 431.189 149.097 431.004 148.841 430.864C148.586 430.725 148.272 430.655 147.901 430.655C147.521 430.655 147.18 430.74 146.878 430.911C146.584 431.081 146.348 431.325 146.17 431.643C145.999 431.96 145.914 432.339 145.914 432.781V432.885C145.914 433.327 145.999 433.706 146.17 434.024C146.348 434.341 146.584 434.585 146.878 434.756C147.18 434.926 147.521 435.011 147.901 435.011C148.466 435.011 148.896 434.864 149.19 434.57C149.492 434.275 149.678 433.911 149.748 433.478L150.654 433.675C150.568 434.047 150.414 434.399 150.189 434.732C149.964 435.065 149.658 435.332 149.271 435.534C148.892 435.735 148.431 435.836 147.889 435.836ZM154.07 435.673C153.745 435.673 153.493 435.584 153.315 435.406C153.145 435.228 153.06 434.984 153.06 434.674V430.795H151.352V429.993H153.06V427.972H153.977V429.993H155.836V430.795H153.977V434.535C153.977 434.767 154.09 434.883 154.314 434.883H155.58V435.673H154.07ZM162.327 435.673V428.169H162.153L160.573 431.062H159.551L161.491 427.542H163.268V435.673H162.327Z"
      fill="#8C8C8C" />
    <circle cx="221.743" cy="431.481" r="4.83995" fill="#FDA900" />
    <path
      d="M235.256 435.673V427.542H238.369C238.857 427.542 239.291 427.639 239.67 427.833C240.057 428.018 240.363 428.286 240.588 428.634C240.812 428.982 240.924 429.405 240.924 429.9V430.051C240.924 430.539 240.808 430.961 240.576 431.317C240.351 431.666 240.046 431.933 239.658 432.119C239.271 432.305 238.841 432.398 238.369 432.398H236.232V435.673H235.256ZM236.232 431.515H238.264C238.783 431.515 239.194 431.387 239.496 431.131C239.798 430.868 239.949 430.5 239.949 430.028V429.912C239.949 429.439 239.798 429.075 239.496 428.82C239.201 428.557 238.791 428.425 238.264 428.425H236.232V431.515ZM242.267 435.673V429.993H243.162V430.69H243.324C243.425 430.442 243.58 430.26 243.789 430.144C243.998 430.028 244.273 429.97 244.614 429.97H245.287V430.806H244.555C244.145 430.806 243.812 430.922 243.556 431.155C243.309 431.379 243.185 431.732 243.185 432.212V435.673H242.267ZM249.067 435.836C248.494 435.836 247.986 435.716 247.545 435.476C247.111 435.236 246.771 434.899 246.523 434.465C246.283 434.024 246.163 433.505 246.163 432.909V432.758C246.163 432.169 246.283 431.654 246.523 431.213C246.771 430.771 247.111 430.431 247.545 430.191C247.986 429.95 248.494 429.83 249.067 429.83C249.64 429.83 250.143 429.95 250.577 430.191C251.018 430.431 251.359 430.771 251.599 431.213C251.847 431.654 251.971 432.169 251.971 432.758V432.909C251.971 433.505 251.847 434.024 251.599 434.465C251.359 434.899 251.018 435.236 250.577 435.476C250.143 435.716 249.64 435.836 249.067 435.836ZM249.067 435.011C249.671 435.011 250.151 434.821 250.507 434.442C250.871 434.055 251.053 433.536 251.053 432.885V432.781C251.053 432.13 250.871 431.615 250.507 431.236C250.151 430.849 249.671 430.655 249.067 430.655C248.47 430.655 247.99 430.849 247.626 431.236C247.262 431.615 247.08 432.13 247.08 432.781V432.885C247.08 433.536 247.262 434.055 247.626 434.442C247.99 434.821 248.47 435.011 249.067 435.011ZM256.027 435.836C255.539 435.836 255.09 435.72 254.679 435.487C254.269 435.255 253.943 434.918 253.703 434.477C253.463 434.035 253.343 433.513 253.343 432.909V432.758C253.343 432.154 253.463 431.635 253.703 431.201C253.943 430.76 254.265 430.423 254.668 430.191C255.078 429.95 255.531 429.83 256.027 429.83C256.422 429.83 256.754 429.885 257.026 429.993C257.304 430.094 257.529 430.225 257.699 430.388C257.87 430.543 258.001 430.709 258.094 430.887H258.257V427.542H259.174V435.673H258.28V434.732H258.117C257.963 435.019 257.722 435.274 257.397 435.499C257.072 435.724 256.615 435.836 256.027 435.836ZM256.271 435.023C256.859 435.023 257.335 434.837 257.699 434.465C258.071 434.086 258.257 433.559 258.257 432.885V432.781C258.257 432.107 258.071 431.584 257.699 431.213C257.335 430.833 256.859 430.644 256.271 430.644C255.69 430.644 255.21 430.833 254.83 431.213C254.458 431.584 254.273 432.107 254.273 432.781V432.885C254.273 433.559 254.458 434.086 254.83 434.465C255.21 434.837 255.69 435.023 256.271 435.023ZM263.27 435.778C262.859 435.778 262.48 435.689 262.131 435.511C261.791 435.332 261.52 435.069 261.318 434.721C261.125 434.364 261.028 433.935 261.028 433.431V429.993H261.945V433.362C261.945 433.927 262.085 434.337 262.364 434.593C262.65 434.848 263.034 434.976 263.514 434.976C264.056 434.976 264.501 434.798 264.849 434.442C265.198 434.086 265.372 433.555 265.372 432.851V429.993H266.29V435.673H265.395V434.709H265.233C265.109 434.98 264.896 435.228 264.594 435.453C264.292 435.669 263.85 435.778 263.27 435.778ZM270.824 435.836C270.274 435.836 269.778 435.72 269.337 435.487C268.903 435.247 268.558 434.907 268.303 434.465C268.055 434.024 267.931 433.501 267.931 432.897V432.769C267.931 432.157 268.055 431.635 268.303 431.201C268.558 430.76 268.903 430.423 269.337 430.191C269.778 429.95 270.274 429.83 270.824 429.83C271.366 429.83 271.826 429.931 272.206 430.132C272.593 430.334 272.895 430.601 273.112 430.934C273.336 431.267 273.48 431.623 273.542 432.003L272.647 432.188C272.609 431.91 272.516 431.654 272.368 431.422C272.229 431.189 272.032 431.004 271.776 430.864C271.521 430.725 271.207 430.655 270.835 430.655C270.456 430.655 270.115 430.74 269.813 430.911C269.519 431.081 269.283 431.325 269.104 431.643C268.934 431.96 268.849 432.339 268.849 432.781V432.885C268.849 433.327 268.934 433.706 269.104 434.024C269.283 434.341 269.519 434.585 269.813 434.756C270.115 434.926 270.456 435.011 270.835 435.011C271.4 435.011 271.83 434.864 272.125 434.57C272.427 434.275 272.612 433.911 272.682 433.478L273.588 433.675C273.503 434.047 273.348 434.399 273.124 434.732C272.899 435.065 272.593 435.332 272.206 435.534C271.826 435.735 271.366 435.836 270.824 435.836ZM277.005 435.673C276.68 435.673 276.428 435.584 276.25 435.406C276.08 435.228 275.994 434.984 275.994 434.674V430.795H274.287V429.993H275.994V427.972H276.912V429.993H278.771V430.795H276.912V434.535C276.912 434.767 277.024 434.883 277.249 434.883H278.515V435.673H277.005ZM282.892 435.673V434.825C282.892 434.244 282.992 433.78 283.194 433.431C283.403 433.083 283.689 432.804 284.053 432.595C284.425 432.378 284.867 432.192 285.378 432.037L286.016 431.84C286.365 431.732 286.671 431.6 286.934 431.445C287.197 431.282 287.403 431.081 287.55 430.841C287.697 430.593 287.77 430.291 287.77 429.935V429.889C287.77 429.377 287.592 428.975 287.236 428.68C286.88 428.378 286.423 428.227 285.865 428.227C285.277 428.227 284.797 428.386 284.425 428.704C284.053 429.013 283.868 429.486 283.868 430.121V430.283H282.938V430.132C282.938 429.544 283.066 429.044 283.322 428.634C283.577 428.224 283.926 427.914 284.367 427.705C284.808 427.488 285.308 427.379 285.865 427.379C286.423 427.379 286.915 427.484 287.341 427.693C287.774 427.902 288.111 428.193 288.351 428.564C288.591 428.936 288.711 429.37 288.711 429.865V429.97C288.711 430.496 288.607 430.934 288.398 431.282C288.189 431.623 287.898 431.902 287.527 432.119C287.163 432.336 286.733 432.521 286.237 432.676L285.61 432.874C285.215 432.998 284.886 433.129 284.623 433.269C284.367 433.4 284.173 433.571 284.042 433.78C283.91 433.989 283.844 434.272 283.844 434.628V434.825H288.642V435.673H282.892Z"
      fill="#8C8C8C" />
    <circle cx="344.678" cy="431.481" r="4.83995" fill="#7878FF" />
    <path
      d="M358.191 435.673V427.542H361.304C361.792 427.542 362.225 427.639 362.605 427.833C362.992 428.018 363.298 428.286 363.522 428.634C363.747 428.982 363.859 429.405 363.859 429.9V430.051C363.859 430.539 363.743 430.961 363.511 431.317C363.286 431.666 362.98 431.933 362.593 432.119C362.206 432.305 361.776 432.398 361.304 432.398H359.166V435.673H358.191ZM359.166 431.515H361.199C361.718 431.515 362.129 431.387 362.431 431.131C362.733 430.868 362.884 430.5 362.884 430.028V429.912C362.884 429.439 362.733 429.075 362.431 428.82C362.136 428.557 361.726 428.425 361.199 428.425H359.166V431.515ZM365.202 435.673V429.993H366.096V430.69H366.259C366.36 430.442 366.515 430.26 366.724 430.144C366.933 430.028 367.208 429.97 367.548 429.97H368.222V430.806H367.49C367.08 430.806 366.747 430.922 366.491 431.155C366.243 431.379 366.12 431.732 366.12 432.212V435.673H365.202ZM372.002 435.836C371.429 435.836 370.921 435.716 370.48 435.476C370.046 435.236 369.705 434.899 369.458 434.465C369.218 434.024 369.098 433.505 369.098 432.909V432.758C369.098 432.169 369.218 431.654 369.458 431.213C369.705 430.771 370.046 430.431 370.48 430.191C370.921 429.95 371.429 429.83 372.002 429.83C372.575 429.83 373.078 429.95 373.512 430.191C373.953 430.431 374.294 430.771 374.534 431.213C374.782 431.654 374.906 432.169 374.906 432.758V432.909C374.906 433.505 374.782 434.024 374.534 434.465C374.294 434.899 373.953 435.236 373.512 435.476C373.078 435.716 372.575 435.836 372.002 435.836ZM372.002 435.011C372.606 435.011 373.086 434.821 373.442 434.442C373.806 434.055 373.988 433.536 373.988 432.885V432.781C373.988 432.13 373.806 431.615 373.442 431.236C373.086 430.849 372.606 430.655 372.002 430.655C371.405 430.655 370.925 430.849 370.561 431.236C370.197 431.615 370.015 432.13 370.015 432.781V432.885C370.015 433.536 370.197 434.055 370.561 434.442C370.925 434.821 371.405 435.011 372.002 435.011ZM378.961 435.836C378.474 435.836 378.024 435.72 377.614 435.487C377.204 435.255 376.878 434.918 376.638 434.477C376.398 434.035 376.278 433.513 376.278 432.909V432.758C376.278 432.154 376.398 431.635 376.638 431.201C376.878 430.76 377.2 430.423 377.602 430.191C378.013 429.95 378.466 429.83 378.961 429.83C379.356 429.83 379.689 429.885 379.96 429.993C380.239 430.094 380.464 430.225 380.634 430.388C380.804 430.543 380.936 430.709 381.029 430.887H381.192V427.542H382.109V435.673H381.215V434.732H381.052C380.897 435.019 380.657 435.274 380.332 435.499C380.007 435.724 379.55 435.836 378.961 435.836ZM379.205 435.023C379.794 435.023 380.27 434.837 380.634 434.465C381.006 434.086 381.192 433.559 381.192 432.885V432.781C381.192 432.107 381.006 431.584 380.634 431.213C380.27 430.833 379.794 430.644 379.205 430.644C378.625 430.644 378.144 430.833 377.765 431.213C377.393 431.584 377.207 432.107 377.207 432.781V432.885C377.207 433.559 377.393 434.086 377.765 434.465C378.144 434.837 378.625 435.023 379.205 435.023ZM386.205 435.778C385.794 435.778 385.415 435.689 385.066 435.511C384.725 435.332 384.454 435.069 384.253 434.721C384.059 434.364 383.963 433.935 383.963 433.431V429.993H384.88V433.362C384.88 433.927 385.02 434.337 385.298 434.593C385.585 434.848 385.968 434.976 386.448 434.976C386.991 434.976 387.436 434.798 387.784 434.442C388.133 434.086 388.307 433.555 388.307 432.851V429.993H389.225V435.673H388.33V434.709H388.168C388.044 434.98 387.831 435.228 387.529 435.453C387.227 435.669 386.785 435.778 386.205 435.778ZM393.758 435.836C393.209 435.836 392.713 435.72 392.272 435.487C391.838 435.247 391.493 434.907 391.238 434.465C390.99 434.024 390.866 433.501 390.866 432.897V432.769C390.866 432.157 390.99 431.635 391.238 431.201C391.493 430.76 391.838 430.423 392.272 430.191C392.713 429.95 393.209 429.83 393.758 429.83C394.3 429.83 394.761 429.931 395.141 430.132C395.528 430.334 395.83 430.601 396.047 430.934C396.271 431.267 396.415 431.623 396.476 432.003L395.582 432.188C395.543 431.91 395.45 431.654 395.303 431.422C395.164 431.189 394.966 431.004 394.711 430.864C394.455 430.725 394.142 430.655 393.77 430.655C393.391 430.655 393.05 430.74 392.748 430.911C392.454 431.081 392.217 431.325 392.039 431.643C391.869 431.96 391.784 432.339 391.784 432.781V432.885C391.784 433.327 391.869 433.706 392.039 434.024C392.217 434.341 392.454 434.585 392.748 434.756C393.05 434.926 393.391 435.011 393.77 435.011C394.335 435.011 394.765 434.864 395.059 434.57C395.361 434.275 395.547 433.911 395.617 433.478L396.523 433.675C396.438 434.047 396.283 434.399 396.058 434.732C395.834 435.065 395.528 435.332 395.141 435.534C394.761 435.735 394.3 435.836 393.758 435.836ZM399.94 435.673C399.615 435.673 399.363 435.584 399.185 435.406C399.014 435.228 398.929 434.984 398.929 434.674V430.795H397.222V429.993H398.929V427.972H399.847V429.993H401.705V430.795H399.847V434.535C399.847 434.767 399.959 434.883 400.184 434.883H401.45V435.673H399.94ZM408.731 435.836C408.158 435.836 407.643 435.727 407.186 435.511C406.737 435.294 406.38 434.98 406.117 434.57C405.861 434.159 405.734 433.664 405.734 433.083V432.862H406.675V433.071C406.675 433.668 406.864 434.136 407.244 434.477C407.623 434.818 408.119 434.988 408.731 434.988C409.35 434.988 409.83 434.829 410.171 434.512C410.519 434.186 410.694 433.78 410.694 433.292V433.199C410.694 432.843 410.609 432.556 410.438 432.339C410.268 432.115 410.035 431.952 409.741 431.852C409.455 431.743 409.137 431.689 408.789 431.689H407.464V430.516L410.566 428.529V428.39H405.931V427.542H411.565V428.855L408.533 430.806V430.946H409.114C409.571 430.946 409.989 431.031 410.368 431.201C410.756 431.364 411.062 431.612 411.286 431.945C411.518 432.27 411.635 432.68 411.635 433.176V433.304C411.635 433.815 411.515 434.26 411.274 434.639C411.034 435.019 410.698 435.313 410.264 435.522C409.83 435.731 409.319 435.836 408.731 435.836Z"
      fill="#8C8C8C" />
    <path
      d="M94.9249 65.9036V44.2206H103.691C105.054 44.2206 106.252 44.4891 107.284 45.026C108.317 45.5629 109.132 46.3269 109.731 47.3182C110.33 48.2887 110.63 49.4452 110.63 50.7874V51.2211C110.63 52.5427 110.32 53.6991 109.7 54.6904C109.101 55.6816 108.275 56.4457 107.222 56.9826C106.19 57.5195 105.013 57.7879 103.691 57.7879H98.673V65.9036H94.9249ZM98.673 54.4116H103.319C104.393 54.4116 105.25 54.1225 105.89 53.5443C106.551 52.9661 106.882 52.171 106.882 51.1591V50.8494C106.882 49.8375 106.561 49.0425 105.921 48.4643C105.281 47.886 104.414 47.5969 103.319 47.5969H98.673V54.4116ZM113.713 65.9036V50.6016H117.213V52.3672H117.74C117.967 51.727 118.349 51.2624 118.886 50.9733C119.423 50.6842 120.063 50.5396 120.806 50.5396H122.665V53.6991H120.744C119.712 53.6991 118.875 53.9779 118.235 54.5355C117.595 55.0724 117.275 55.9087 117.275 57.0445V65.9036H113.713ZM125.813 65.9036V50.6016H129.375V65.9036H125.813ZM127.578 48.6501C126.938 48.6501 126.381 48.4436 125.906 48.0306C125.451 47.5969 125.224 47.0291 125.224 46.3269C125.224 45.6248 125.451 45.0673 125.906 44.6543C126.381 44.2206 126.938 44.0038 127.578 44.0038C128.26 44.0038 128.817 44.2206 129.251 44.6543C129.705 45.0673 129.933 45.6248 129.933 46.3269C129.933 47.0291 129.705 47.5969 129.251 48.0306C128.817 48.4436 128.26 48.6501 127.578 48.6501ZM133.889 65.9036V50.6016H137.39V52.3052H137.916C138.185 51.789 138.629 51.3347 139.248 50.9423C139.888 50.5293 140.735 50.3228 141.788 50.3228C142.903 50.3228 143.802 50.55 144.483 51.0043C145.165 51.4586 145.681 52.0368 146.032 52.7389H146.527C146.879 52.0368 147.384 51.4586 148.045 51.0043C148.706 50.55 149.646 50.3228 150.864 50.3228C151.814 50.3228 152.671 50.5293 153.435 50.9423C154.22 51.3553 154.839 51.9645 155.294 52.7699C155.769 53.5752 156.006 54.5768 156.006 55.7745V65.9036H152.444V56.0223C152.444 55.1344 152.206 54.4632 151.731 54.0089C151.256 53.5339 150.596 53.2965 149.749 53.2965C148.82 53.2965 148.076 53.6062 147.519 54.2257C146.982 54.8246 146.713 55.6919 146.713 56.8277V65.9036H143.182V56.0223C143.182 55.1344 142.945 54.4632 142.47 54.0089C141.995 53.5339 141.334 53.2965 140.487 53.2965C139.537 53.2965 138.794 53.6062 138.257 54.2257C137.72 54.8246 137.452 55.6919 137.452 56.8277V65.9036H133.889ZM165.127 66.3372C164.054 66.3372 163.083 66.1514 162.216 65.7797C161.348 65.3873 160.657 64.8297 160.14 64.107C159.645 63.3842 159.397 62.4962 159.397 61.4431C159.397 60.4105 159.645 59.5432 160.14 58.8411C160.657 58.139 161.359 57.6124 162.247 57.2614C163.135 56.8896 164.147 56.7038 165.282 56.7038H169.712V55.7745C169.712 54.9692 169.464 54.3187 168.968 53.8231C168.473 53.3068 167.698 53.0487 166.645 53.0487C165.613 53.0487 164.828 53.2965 164.291 53.7921C163.775 54.267 163.434 54.8866 163.269 55.6506L159.985 54.5665C160.233 53.7611 160.626 53.028 161.163 52.3672C161.72 51.7064 162.453 51.1798 163.362 50.7874C164.27 50.3744 165.386 50.1679 166.707 50.1679C168.71 50.1679 170.28 50.6739 171.415 51.6857C172.572 52.677 173.15 54.1225 173.15 56.0223V62.0316C173.15 62.6511 173.439 62.9609 174.017 62.9609H175.318V65.9036H172.809C172.066 65.9036 171.457 65.7177 170.982 65.346C170.507 64.9743 170.269 64.4684 170.269 63.8282V63.7662H169.743C169.619 64.0553 169.402 64.4064 169.092 64.8194C168.783 65.2324 168.308 65.5938 167.667 65.9036C167.048 66.1927 166.201 66.3372 165.127 66.3372ZM165.716 63.4255C166.893 63.4255 167.853 63.0951 168.597 62.4343C169.34 61.7528 169.712 60.8442 169.712 59.7084V59.3987H165.499C164.735 59.3987 164.116 59.5639 163.641 59.8943C163.166 60.2247 162.928 60.71 162.928 61.3501C162.928 61.9697 163.176 62.4756 163.672 62.8679C164.167 63.2397 164.849 63.4255 165.716 63.4255ZM178.266 65.9036V50.6016H181.766V52.3672H182.293C182.52 51.727 182.902 51.2624 183.439 50.9733C183.976 50.6842 184.616 50.5396 185.359 50.5396H187.218V53.6991H185.297C184.265 53.6991 183.428 53.9779 182.788 54.5355C182.148 55.0724 181.828 55.9087 181.828 57.0445V65.9036H178.266ZM192.069 72.0987V69.0011H200.526C201.104 69.0011 201.393 68.6914 201.393 68.0719V63.7972H200.866C200.701 64.1689 200.433 64.5406 200.061 64.9123C199.689 65.2634 199.194 65.5628 198.574 65.8106C197.955 66.0378 197.17 66.1514 196.22 66.1514C195.043 66.1514 194 65.8932 193.091 65.377C192.183 64.8401 191.481 64.0967 190.985 63.1467C190.489 62.1762 190.242 61.0507 190.242 59.7704V50.6016H193.773V59.4916C193.773 60.7306 194.072 61.6496 194.671 62.2484C195.291 62.8473 196.158 63.1467 197.273 63.1467C198.533 63.1467 199.524 62.7337 200.247 61.9077C200.99 61.0817 201.362 59.8943 201.362 58.3455V50.6016H204.893V68.8153C204.893 69.8271 204.604 70.6222 204.026 71.2004C203.448 71.7993 202.663 72.0987 201.672 72.0987H192.069ZM221.398 65.9036V47.5969H214.924V44.2206H231.589V47.5969H225.115V65.9036H221.398ZM238.657 66.3372C237.129 66.3372 235.776 66.0171 234.599 65.377C233.443 64.7162 232.534 63.7972 231.873 62.6201C231.233 61.4224 230.913 60.0285 230.913 58.4384V58.0667C230.913 56.456 231.233 55.0621 231.873 53.885C232.513 52.7079 233.412 51.7993 234.568 51.1591C235.725 50.4983 237.056 50.1679 238.564 50.1679C240.051 50.1679 241.352 50.4983 242.467 51.1591C243.582 51.7993 244.449 52.7079 245.069 53.885C245.688 55.0621 245.998 56.4353 245.998 58.0048V59.2748H234.506C234.547 60.4725 234.971 61.4327 235.776 62.1555C236.581 62.8783 237.573 63.2397 238.75 63.2397C239.906 63.2397 240.763 62.9919 241.321 62.4962C241.878 61.98 242.302 61.4018 242.591 60.7616L245.533 62.2794C245.244 62.837 244.821 63.4358 244.263 64.076C243.727 64.6955 243.004 65.2324 242.095 65.6867C241.187 66.1204 240.04 66.3372 238.657 66.3372ZM234.537 56.5799H242.374C242.291 55.568 241.899 54.7626 241.197 54.1638C240.515 53.5649 239.627 53.2655 238.533 53.2655C237.397 53.2655 236.489 53.5649 235.807 54.1638C235.126 54.7626 234.702 55.568 234.537 56.5799ZM247.325 65.9036L253.024 58.1906L247.418 50.6016H251.568L255.316 55.8984H255.843L259.591 50.6016H263.711L258.104 58.1906L263.804 65.9036H259.622L255.843 60.5138H255.316L251.537 65.9036H247.325ZM272.811 65.9036C271.82 65.9036 271.025 65.6145 270.426 65.0362C269.848 64.4374 269.559 63.632 269.559 62.6201V53.5443H265.563V50.6016H269.559V45.6765H273.121V50.6016H277.52V53.5443H273.121V62.0316C273.121 62.6511 273.41 62.9609 273.988 62.9609H277.055V65.9036H272.811Z"
      fill="white" />
    <path
      d="M97.6353 99.6082C96.8506 99.6082 96.1485 99.4688 95.5289 99.19C94.9094 98.9112 94.419 98.4931 94.0576 97.9355C93.7065 97.3676 93.531 96.6603 93.531 95.8137V95.4884H94.8165V95.8137C94.8165 96.712 95.0798 97.3831 95.6064 97.8271C96.133 98.2607 96.8093 98.4776 97.6353 98.4776C98.482 98.4776 99.1273 98.2866 99.5713 97.9045C100.015 97.5225 100.237 97.0424 100.237 96.4642C100.237 96.0615 100.134 95.7414 99.9275 95.5039C99.7313 95.2664 99.4525 95.0754 99.0911 94.9309C98.7298 94.776 98.3064 94.6418 97.8211 94.5282L97.0158 94.3268C96.3859 94.1616 95.8284 93.9603 95.3431 93.7228C94.8578 93.4853 94.4758 93.1756 94.197 92.7935C93.9285 92.4012 93.7943 91.9004 93.7943 91.2912C93.7943 90.682 93.944 90.1554 94.2435 89.7115C94.5532 89.2675 94.9817 88.9267 95.5289 88.6893C96.0865 88.4518 96.7267 88.333 97.4494 88.333C98.1825 88.333 98.8382 88.4621 99.4164 88.7202C100.005 88.968 100.464 89.3398 100.795 89.8354C101.136 90.3206 101.306 90.935 101.306 91.6784V92.3289H100.02V91.6784C100.02 91.1518 99.9068 90.7285 99.6797 90.4084C99.4629 90.0883 99.1583 89.8509 98.7659 89.696C98.3839 89.5411 97.945 89.4637 97.4494 89.4637C96.737 89.4637 96.1639 89.6237 95.7303 89.9438C95.2966 90.2535 95.0798 90.6975 95.0798 91.2757C95.0798 91.6578 95.1727 91.9675 95.3586 92.205C95.5444 92.4425 95.8077 92.6387 96.1485 92.7935C96.4892 92.9381 96.897 93.0672 97.372 93.1807L98.1774 93.3821C98.8072 93.5163 99.3699 93.7022 99.8655 93.9396C100.371 94.1668 100.774 94.4817 101.074 94.8844C101.373 95.2768 101.523 95.793 101.523 96.4332C101.523 97.0733 101.363 97.6309 101.043 98.1059C100.723 98.5808 100.268 98.9525 99.6797 99.221C99.1015 99.4791 98.42 99.6082 97.6353 99.6082ZM107.041 99.6082C106.277 99.6082 105.606 99.4481 105.027 99.1281C104.449 98.7977 104 98.3382 103.68 97.7496C103.36 97.1611 103.2 96.4796 103.2 95.7053V95.5194C103.2 94.7347 103.36 94.0481 103.68 93.4595C104 92.871 104.444 92.4167 105.012 92.0966C105.58 91.7662 106.23 91.601 106.963 91.601C107.676 91.601 108.306 91.7559 108.853 92.0656C109.4 92.365 109.829 92.7987 110.138 93.3666C110.448 93.9345 110.603 94.6005 110.603 95.3645V95.9221H104.423C104.454 96.7378 104.718 97.3779 105.213 97.8426C105.709 98.2969 106.328 98.524 107.072 98.524C107.722 98.524 108.223 98.3743 108.574 98.0749C108.925 97.7755 109.194 97.4192 109.379 97.0062L110.433 97.5173C110.278 97.8374 110.061 98.1575 109.782 98.4776C109.514 98.7977 109.157 99.0661 108.713 99.2829C108.28 99.4998 107.722 99.6082 107.041 99.6082ZM104.439 94.9154H109.364C109.323 94.2133 109.08 93.666 108.636 93.2737C108.202 92.8813 107.645 92.6851 106.963 92.6851C106.272 92.6851 105.704 92.8813 105.26 93.2737C104.816 93.666 104.542 94.2133 104.439 94.9154ZM116.222 99.6082C115.489 99.6082 114.828 99.4533 114.239 99.1436C113.661 98.8235 113.202 98.3692 112.861 97.7806C112.531 97.1921 112.365 96.4951 112.365 95.6898V95.5194C112.365 94.7037 112.531 94.0068 112.861 93.4285C113.202 92.84 113.661 92.3909 114.239 92.0811C114.828 91.761 115.489 91.601 116.222 91.601C116.945 91.601 117.559 91.7352 118.065 92.0037C118.581 92.2721 118.984 92.6283 119.273 93.0723C119.572 93.5163 119.763 93.9913 119.846 94.4972L118.653 94.745C118.602 94.3733 118.478 94.0326 118.282 93.7228C118.096 93.4131 117.833 93.1652 117.492 92.9794C117.151 92.7935 116.733 92.7006 116.237 92.7006C115.731 92.7006 115.277 92.8142 114.874 93.0413C114.482 93.2685 114.167 93.5937 113.93 94.0171C113.703 94.4404 113.589 94.9463 113.589 95.5349V95.6743C113.589 96.2628 113.703 96.7688 113.93 97.1921C114.167 97.6154 114.482 97.9407 114.874 98.1678C115.277 98.395 115.731 98.5086 116.237 98.5086C116.991 98.5086 117.564 98.3124 117.957 97.92C118.359 97.5277 118.607 97.0424 118.7 96.4642L119.908 96.7274C119.794 97.2231 119.588 97.6929 119.288 98.1368C118.989 98.5808 118.581 98.937 118.065 99.2055C117.559 99.474 116.945 99.6082 116.222 99.6082ZM125.494 99.6082C124.73 99.6082 124.053 99.4481 123.465 99.1281C122.887 98.808 122.432 98.3588 122.102 97.7806C121.782 97.1921 121.622 96.5003 121.622 95.7053V95.5039C121.622 94.7192 121.782 94.0326 122.102 93.444C122.432 92.8555 122.887 92.4012 123.465 92.0811C124.053 91.761 124.73 91.601 125.494 91.601C126.258 91.601 126.929 91.761 127.507 92.0811C128.096 92.4012 128.55 92.8555 128.87 93.444C129.201 94.0326 129.366 94.7192 129.366 95.5039V95.7053C129.366 96.5003 129.201 97.1921 128.87 97.7806C128.55 98.3588 128.096 98.808 127.507 99.1281C126.929 99.4481 126.258 99.6082 125.494 99.6082ZM125.494 98.5086C126.299 98.5086 126.939 98.2556 127.414 97.7496C127.9 97.2334 128.142 96.5416 128.142 95.6743V95.5349C128.142 94.6676 127.9 93.9809 127.414 93.475C126.939 92.9587 126.299 92.7006 125.494 92.7006C124.699 92.7006 124.059 92.9587 123.573 93.475C123.088 93.9809 122.845 94.6676 122.845 95.5349V95.6743C122.845 96.5416 123.088 97.2334 123.573 97.7496C124.059 98.2556 124.699 98.5086 125.494 98.5086ZM131.568 99.3914V91.8178H132.76V93.1033H132.977C133.142 92.7419 133.421 92.4167 133.813 92.1276C134.216 91.8281 134.805 91.6784 135.579 91.6784C136.147 91.6784 136.653 91.7972 137.097 92.0346C137.551 92.2721 137.912 92.6232 138.181 93.0878C138.449 93.5524 138.584 94.1255 138.584 94.807V99.3914H137.36V94.8999C137.36 94.1461 137.169 93.5989 136.787 93.2582C136.415 92.9174 135.909 92.7471 135.269 92.7471C134.536 92.7471 133.937 92.9846 133.473 93.4595C133.018 93.9345 132.791 94.6418 132.791 95.5813V99.3914H131.568ZM144.272 99.6082C143.621 99.6082 143.023 99.4533 142.475 99.1436C141.928 98.8338 141.494 98.3846 141.174 97.7961C140.854 97.2076 140.694 96.5106 140.694 95.7053V95.5039C140.694 94.6985 140.854 94.0068 141.174 93.4285C141.494 92.84 141.923 92.3909 142.46 92.0811C143.007 91.761 143.611 91.601 144.272 91.601C144.799 91.601 145.243 91.6733 145.604 91.8178C145.976 91.952 146.275 92.1276 146.502 92.3444C146.729 92.5509 146.905 92.7729 147.029 93.0104H147.246V88.5499H148.469V99.3914H147.277V98.1368H147.06C146.853 98.5189 146.533 98.8596 146.1 99.159C145.666 99.4585 145.057 99.6082 144.272 99.6082ZM144.597 98.524C145.382 98.524 146.017 98.2762 146.502 97.7806C146.998 97.2747 147.246 96.5726 147.246 95.6743V95.5349C147.246 94.6366 146.998 93.9396 146.502 93.444C146.017 92.9381 145.382 92.6851 144.597 92.6851C143.823 92.6851 143.183 92.9381 142.677 93.444C142.181 93.9396 141.933 94.6366 141.933 95.5349V95.6743C141.933 96.5726 142.181 97.2747 142.677 97.7806C143.183 98.2762 143.823 98.524 144.597 98.524ZM153.356 99.6082C152.83 99.6082 152.35 99.5153 151.916 99.3294C151.482 99.1436 151.142 98.8751 150.894 98.524C150.646 98.173 150.522 97.7445 150.522 97.2385C150.522 96.7223 150.646 96.299 150.894 95.9685C151.142 95.6278 151.482 95.3748 151.916 95.2096C152.35 95.0341 152.835 94.9463 153.372 94.9463H155.927V94.3888C155.927 93.8519 155.767 93.4285 155.447 93.1188C155.138 92.809 154.673 92.6541 154.053 92.6541C153.444 92.6541 152.969 92.8039 152.628 93.1033C152.288 93.3924 152.055 93.7848 151.932 94.2804L150.785 93.9087C150.909 93.4853 151.106 93.1033 151.374 92.7626C151.642 92.4115 151.999 92.1327 152.443 91.9262C152.897 91.7094 153.439 91.601 154.069 91.601C155.039 91.601 155.793 91.8539 156.33 92.3599C156.867 92.8555 157.135 93.5576 157.135 94.4662V97.889C157.135 98.1988 157.28 98.3537 157.569 98.3537H158.266V99.3914H157.197C156.857 99.3914 156.583 99.2984 156.377 99.1126C156.17 98.9164 156.067 98.6583 156.067 98.3382V98.2607H155.881C155.767 98.4569 155.612 98.6634 155.416 98.8803C155.23 99.0868 154.972 99.2571 154.642 99.3914C154.311 99.5359 153.883 99.6082 153.356 99.6082ZM153.496 98.555C154.219 98.555 154.802 98.3433 155.246 97.92C155.7 97.4864 155.927 96.8823 155.927 96.1079V95.9376H153.418C152.933 95.9376 152.53 96.046 152.21 96.2628C151.901 96.4693 151.746 96.7842 151.746 97.2076C151.746 97.6309 151.906 97.9613 152.226 98.1988C152.556 98.4363 152.98 98.555 153.496 98.555ZM159.942 99.3914V91.8178H161.134V92.7471H161.351C161.485 92.4167 161.692 92.174 161.971 92.0191C162.249 91.8643 162.616 91.7868 163.07 91.7868H163.969V92.902H162.993C162.446 92.902 162.002 93.0568 161.661 93.3666C161.331 93.666 161.165 94.1358 161.165 94.776V99.3914H159.942ZM166.694 102.489V101.405H171.03C171.33 101.405 171.479 101.25 171.479 100.94V98.1833H171.263C171.159 98.4001 170.999 98.617 170.783 98.8338C170.576 99.0403 170.302 99.2107 169.962 99.3449C169.621 99.4688 169.192 99.5307 168.676 99.5307C168.129 99.5307 167.623 99.412 167.158 99.1745C166.704 98.937 166.343 98.586 166.074 98.1214C165.816 97.6567 165.687 97.0888 165.687 96.4177V91.8178H166.911V96.3248C166.911 97.0682 167.096 97.6103 167.468 97.951C167.85 98.2917 168.361 98.4621 169.001 98.4621C169.724 98.4621 170.318 98.2246 170.783 97.7496C171.247 97.2747 171.479 96.5674 171.479 95.6278V91.8178H172.703V101.157C172.703 101.57 172.584 101.895 172.347 102.133C172.12 102.37 171.784 102.489 171.34 102.489H166.694ZM182.029 99.3914C181.595 99.3914 181.26 99.2726 181.022 99.0351C180.795 98.7977 180.681 98.4724 180.681 98.0594V92.8865H178.405V91.8178H180.681V89.1229H181.905V91.8178H184.383V92.8865H181.905V97.8735C181.905 98.1833 182.055 98.3382 182.354 98.3382H184.042V99.3914H182.029ZM189.562 99.6082C188.798 99.6082 188.127 99.4481 187.548 99.1281C186.97 98.7977 186.521 98.3382 186.201 97.7496C185.881 97.1611 185.721 96.4796 185.721 95.7053V95.5194C185.721 94.7347 185.881 94.0481 186.201 93.4595C186.521 92.871 186.965 92.4167 187.533 92.0966C188.101 91.7662 188.751 91.601 189.484 91.601C190.197 91.601 190.827 91.7559 191.374 92.0656C191.921 92.365 192.35 92.7987 192.659 93.3666C192.969 93.9345 193.124 94.6005 193.124 95.3645V95.9221H186.944C186.975 96.7378 187.239 97.3779 187.734 97.8426C188.23 98.2969 188.849 98.524 189.593 98.524C190.243 98.524 190.744 98.3743 191.095 98.0749C191.446 97.7755 191.715 97.4192 191.901 97.0062L192.954 97.5173C192.799 97.8374 192.582 98.1575 192.303 98.4776C192.035 98.7977 191.679 99.0661 191.235 99.2829C190.801 99.4998 190.243 99.6082 189.562 99.6082ZM186.96 94.9154H191.885C191.844 94.2133 191.601 93.666 191.157 93.2737C190.723 92.8813 190.166 92.6851 189.484 92.6851C188.793 92.6851 188.225 92.8813 187.781 93.2737C187.337 93.666 187.063 94.2133 186.96 94.9154ZM194.125 99.3914L197.16 95.5504L194.217 91.8178H195.689L197.95 94.745H198.167L200.413 91.8178H201.899L198.941 95.5504L201.977 99.3914H200.49L198.167 96.3712H197.95L195.627 99.3914H194.125ZM206.713 99.3914C206.279 99.3914 205.943 99.2726 205.706 99.0351C205.479 98.7977 205.365 98.4724 205.365 98.0594V92.8865H203.088V91.8178H205.365V89.1229H206.589V91.8178H209.067V92.8865H206.589V97.8735C206.589 98.1833 206.738 98.3382 207.038 98.3382H208.726V99.3914H206.713Z"
      fill="#8C8C8C" />
    <circle cx="665.241" cy="47.6475" r="7.74392" fill="#4F4F4F" />
    <rect x="663.95" y="45.9268" width="2.5813" height="6.88347" rx="1.29065" fill="#1E1E1E" />
    <rect x="663.95" y="42.4846" width="2.5813" height="2.5813" rx="1.29065" fill="#1E1E1E" />
    <path
      d="M555.34 97.3128C553.708 97.3128 552.294 97.0134 551.096 96.4145C549.898 95.8157 548.969 94.969 548.308 93.8745C547.668 92.78 547.348 91.51 547.348 90.0645V89.7238H550.662V90.0335C550.662 91.3552 551.065 92.4187 551.87 93.224C552.696 94.0087 553.842 94.4011 555.309 94.4011C556.816 94.4011 557.983 93.9881 558.809 93.1621C559.635 92.3361 560.048 91.2209 560.048 89.8167V89.5379C560.048 88.1956 559.635 87.1218 558.809 86.3164C558.003 85.5111 556.971 85.1084 555.711 85.1084C555.009 85.1084 554.421 85.222 553.946 85.4491C553.491 85.6556 553.12 85.9138 552.83 86.2235C552.562 86.5333 552.335 86.8327 552.149 87.1218H548.029V75.1962H562.557V78.1389H551.282V84.5199H551.777C551.984 84.1688 552.273 83.8384 552.645 83.5286C553.037 83.1982 553.543 82.9298 554.162 82.7233C554.782 82.5168 555.525 82.4135 556.393 82.4135C557.673 82.4135 558.829 82.6923 559.862 83.2499C560.915 83.7868 561.751 84.5921 562.371 85.666C562.991 86.7191 563.3 87.9995 563.3 89.5069V89.8477C563.3 91.3552 562.98 92.6665 562.34 93.7816C561.7 94.8967 560.781 95.764 559.583 96.3835C558.406 97.0031 556.992 97.3128 555.34 97.3128ZM568.803 97.3128C568.08 97.3128 567.471 97.0753 566.975 96.6004C566.5 96.1254 566.263 95.5162 566.263 94.7728C566.263 94.0294 566.5 93.4305 566.975 92.9762C567.471 92.5013 568.08 92.2638 568.803 92.2638C569.525 92.2638 570.124 92.5013 570.599 92.9762C571.095 93.4512 571.343 94.05 571.343 94.7728C571.343 95.5162 571.095 96.1254 570.599 96.6004C570.124 97.0753 569.525 97.3128 568.803 97.3128ZM582.351 97.3128C580.74 97.3128 579.357 97.0444 578.2 96.5074C577.044 95.9499 576.156 95.1755 575.536 94.1843C574.917 93.1724 574.607 91.9953 574.607 90.653H577.922C577.922 91.7269 578.273 92.6252 578.975 93.3479C579.697 94.05 580.823 94.4011 582.351 94.4011C583.9 94.4011 585.087 93.9881 585.913 93.1621C586.739 92.3361 587.152 91.2106 587.152 89.7857V87.1838H586.657C586.306 87.6794 585.738 88.1543 584.953 88.6086C584.168 89.063 583.032 89.2901 581.546 89.2901C580.286 89.2901 579.119 89.0113 578.045 88.4538C576.972 87.8962 576.104 87.1012 575.443 86.0686C574.803 85.0155 574.483 83.7661 574.483 82.3206V81.9489C574.483 80.5033 574.814 79.2437 575.474 78.1698C576.156 77.096 577.095 76.2597 578.293 75.6608C579.512 75.062 580.905 74.7625 582.475 74.7625C584.065 74.7625 585.449 75.0723 586.626 75.6918C587.823 76.2907 588.753 77.1373 589.413 78.2318C590.074 79.3056 590.405 80.5756 590.405 82.0418V89.5379C590.405 91.2313 590.064 92.6561 589.383 93.8126C588.722 94.969 587.782 95.8466 586.564 96.4455C585.366 97.0237 583.962 97.3128 582.351 97.3128ZM582.444 86.6572C583.394 86.6572 584.22 86.4713 584.922 86.0996C585.624 85.7279 586.171 85.222 586.564 84.5818C586.956 83.921 587.152 83.1466 587.152 82.2586V82.0108C587.152 80.6685 586.719 79.6154 585.851 78.8513C585.005 78.0666 583.869 77.6742 582.444 77.6742C581.019 77.6742 579.873 78.0666 579.006 78.8513C578.159 79.6154 577.736 80.6685 577.736 82.0108V82.2586C577.736 83.1466 577.922 83.921 578.293 84.5818C578.686 85.222 579.233 85.7279 579.935 86.0996C580.658 86.4713 581.494 86.6572 582.444 86.6572ZM601.594 97.3128C599.921 97.3128 598.455 97.065 597.196 96.5694C595.957 96.0738 594.986 95.3613 594.284 94.4321C593.602 93.4822 593.262 92.3774 593.262 91.1177V90.7769C593.262 89.7444 593.458 88.8978 593.85 88.2369C594.263 87.5555 594.759 87.0289 595.337 86.6572C595.936 86.2648 596.494 86.0067 597.01 85.8828V85.3872C596.494 85.2426 595.967 84.9845 595.43 84.6128C594.893 84.2204 594.449 83.7145 594.098 83.095C593.768 82.4548 593.602 81.6907 593.602 80.8028V80.462C593.602 79.3056 593.933 78.3041 594.594 77.4574C595.275 76.6107 596.215 75.9499 597.412 75.475C598.61 75 600.004 74.7625 601.594 74.7625C603.164 74.7625 604.547 75 605.745 75.475C606.943 75.9499 607.872 76.6107 608.533 77.4574C609.214 78.3041 609.555 79.3056 609.555 80.462V80.8028C609.555 81.6907 609.379 82.4548 609.028 83.095C608.698 83.7145 608.275 84.2204 607.758 84.6128C607.242 84.9845 606.715 85.2426 606.179 85.3872V85.8828C606.715 86.0067 607.273 86.2648 607.851 86.6572C608.429 87.0289 608.915 87.5555 609.307 88.2369C609.699 88.8978 609.896 89.7444 609.896 90.7769V91.1177C609.896 92.3774 609.545 93.4822 608.842 94.4321C608.161 95.3613 607.19 96.0738 605.931 96.5694C604.692 97.065 603.246 97.3128 601.594 97.3128ZM601.594 94.4011C603.164 94.4011 604.392 94.1017 605.28 93.5028C606.189 92.8833 606.643 92.0263 606.643 90.9318V90.684C606.643 89.5689 606.199 88.7119 605.311 88.113C604.444 87.4935 603.205 87.1838 601.594 87.1838C599.983 87.1838 598.734 87.4935 597.846 88.113C596.958 88.7119 596.514 89.5689 596.514 90.684V90.9318C596.514 92.0263 596.958 92.8833 597.846 93.5028C598.755 94.1017 600.004 94.4011 601.594 94.4011ZM601.594 84.2721C603.06 84.2721 604.206 83.9933 605.032 83.4357C605.879 82.8781 606.302 82.0934 606.302 81.0816V80.8338C606.302 79.8219 605.879 79.0475 605.032 78.5106C604.186 77.953 603.04 77.6742 601.594 77.6742C600.128 77.6742 598.972 77.953 598.125 78.5106C597.278 79.0475 596.855 79.8219 596.855 80.8338V81.0816C596.855 82.0934 597.268 82.8781 598.094 83.4357C598.941 83.9933 600.107 84.2721 601.594 84.2721ZM615.087 96.8792V96.1048C615.087 95.32 615.149 94.6696 615.273 94.1533C615.397 93.6164 615.655 92.9969 616.047 92.2948L623.791 78.5106V78.1079H611.617V75.1962H627.167V79.0372L619.021 93.6577C618.773 94.112 618.597 94.525 618.494 94.8967C618.391 95.2478 618.339 95.6917 618.339 96.2287V96.8792H615.087ZM628.32 101.092V99.2643H629.373C630.22 99.2643 630.643 98.8409 630.643 97.9943V97.0031H630.178C629.456 97.0031 628.857 96.7862 628.382 96.3526C627.907 95.9189 627.669 95.3717 627.669 94.7109C627.669 93.9881 627.907 93.4099 628.382 92.9762C628.857 92.5219 629.456 92.2948 630.178 92.2948C630.901 92.2948 631.49 92.5322 631.944 93.0072C632.419 93.4615 632.656 94.0604 632.656 94.8038V98.0253C632.656 100.07 631.634 101.092 629.59 101.092H628.32ZM643.821 97.3128C642.231 97.3128 640.817 97.0237 639.578 96.4455C638.339 95.8673 637.368 95.0309 636.666 93.9365C635.984 92.842 635.644 91.541 635.644 90.0335V89.476H638.896V89.9716C638.896 91.3345 639.34 92.4187 640.228 93.224C641.137 94.0087 642.334 94.4011 643.821 94.4011C645.308 94.4011 646.465 94.0294 647.291 93.286C648.117 92.5426 648.53 91.603 648.53 90.4672V90.1884C648.53 89.383 648.333 88.7325 647.941 88.2369C647.549 87.7413 647.022 87.3799 646.361 87.1528C645.7 86.905 644.957 86.7811 644.131 86.7811H640.197V83.033L647.817 78.5416V78.1079H636.17V75.1962H651.348V79.5947L644.069 83.9313V84.365H645.401C646.496 84.365 647.528 84.5715 648.499 84.9845C649.469 85.3975 650.254 86.0273 650.853 86.874C651.472 87.7207 651.782 88.7945 651.782 90.0955V90.4672C651.782 91.8508 651.452 93.0588 650.791 94.0913C650.13 95.1032 649.201 95.8983 648.003 96.4765C646.805 97.034 645.411 97.3128 643.821 97.3128ZM665.053 96.8792V92.4496H654.088V88.6706L662.389 75.1962H668.306V89.5689H671.961V92.4496H668.306V96.8792H665.053ZM657.248 89.5689H665.053V77.2406H664.558L657.248 89.1352V89.5689Z"
      fill="white" />
    <path d="M92.9731 132.855L672.799 132.855" stroke="#4F4F4F" stroke-width="0.96799" />
    <rect x="94.4862" y="174.108" width="578.735" height="188.063" stroke="#514F4F"
      stroke-width="0.96799" stroke-dasharray="0.97 0.97" />
    <path d="M94.0022 281.896H673.705" stroke="#514F4F" stroke-width="0.96799"
      stroke-dasharray="1.94 1.94" />
    <path d="M94.0022 303.079H673.705" stroke="#514F4F" stroke-width="0.96799"
      stroke-dasharray="1.94 1.94" />
    <path d="M94.0022 324.263H673.705" stroke="#514F4F" stroke-width="0.96799"
      stroke-dasharray="1.94 1.94" />
    <path d="M94.0022 345.446H673.705" stroke="#514F4F" stroke-width="0.96799"
      stroke-dasharray="1.94 1.94" />
    <path d="M94.8953 197.161H672.812" stroke="#514F4F" stroke-width="0.96799"
      stroke-dasharray="1.94 1.94" />
    <path d="M94.8953 218.345H672.812" stroke="#514F4F" stroke-width="0.96799"
      stroke-dasharray="1.94 1.94" />
    <path d="M94.8953 239.528H672.812" stroke="#514F4F" stroke-width="0.96799"
      stroke-dasharray="1.94 1.94" />
    <path d="M94.0022 260.712H673.705" stroke="#514F4F" stroke-width="0.96799"
      stroke-dasharray="1.94 1.94" />
    <path d="M161.93 173.624L161.93 362.654" stroke="#514F4F" stroke-width="0.96799"
      stroke-dasharray="1.94 1.94" />
    <path d="M235.651 173.624L235.651 362.654" stroke="#514F4F" stroke-width="0.96799"
      stroke-dasharray="1.94 1.94" />
    <path d="M309.374 173.624L309.374 362.654" stroke="#514F4F" stroke-width="0.96799"
      stroke-dasharray="1.94 1.94" />
    <path d="M383.093 173.624L383.093 362.654" stroke="#514F4F" stroke-width="0.96799"
      stroke-dasharray="1.94 1.94" />
    <path d="M456.815 173.624L456.815 362.654" stroke="#514F4F" stroke-width="0.96799"
      stroke-dasharray="1.94 1.94" />
    <path d="M530.541 173.624L530.541 362.654" stroke="#514F4F" stroke-width="0.96799"
      stroke-dasharray="1.94 1.94" />
    <path d="M604.262 173.624L604.262 362.654" stroke="#514F4F" stroke-width="0.96799"
      stroke-dasharray="1.94 1.94" />
    <path
      d="M101.322 289.771C116.628 284.521 151.939 268.963 170.734 248.728C194.227 223.434 233.739 180.482 267.911 219.139C302.083 257.796 329.848 300.27 386.446 304.566C443.043 308.861 436.636 271.636 461.197 271.636C485.758 271.636 487.894 340.359 537.016 340.359C586.139 340.359 587.207 219.139 673.705 219.139"
      stroke="#FF0181" stroke-width="2.90397" />
    <ellipse cx="97.8863" cy="289.951" rx="3.88413" ry="3.87756" fill="#FF0181" />
    <ellipse cx="162.728" cy="256.022" rx="3.88412" ry="3.87754" fill="#FF0181" />
    <ellipse cx="235.772" cy="203.675" rx="2.9131" ry="2.90816" fill="#FF0181" />
    <ellipse cx="603.794" cy="257.961" rx="3.88413" ry="3.87756" fill="#FF0181" />
    <path opacity="0.2"
      d="M166.102 252.144C145.225 272.017 110.423 284.814 94.9729 290.146V361.685H672.737V218.411C585.425 218.411 584.348 341.523 534.763 341.523C485.179 341.523 483.023 271.728 458.231 271.728C433.439 271.728 439.619 312.379 382.777 305.171C327.722 298.19 301.245 257.476 266.751 218.216C232.258 178.956 191.428 228.037 166.102 252.144Z"
      fill="#FF0181" />
    <path opacity="0.2"
      d="M180.075 303.158C162 287.423 115.162 276.453 94.0022 272.935V361.685H671.766V342.016C594.301 342.016 537.277 268.138 529.746 256.624C522.215 245.111 505 221.124 457.66 221.124C410.32 221.124 370.511 269.097 324.247 297.401C277.983 325.705 256.465 324.746 241.402 324.746C226.339 324.746 202.669 322.827 180.075 303.158Z"
      fill="#FDA900" />
    <ellipse cx="309.571" cy="265.716" rx="3.88413" ry="3.87754" fill="#FF0181" />
    <ellipse cx="383.369" cy="304.491" rx="3.88413" ry="3.87756" fill="#FF0181" />
    <ellipse cx="529.995" cy="340.359" rx="3.88413" ry="3.87756" fill="#FF0181" />
    <ellipse cx="456.197" cy="271.532" rx="3.88413" ry="3.87754" fill="#FF0181" />
    <path
      d="M94.9702 274.579C116.094 278.077 162.854 288.984 180.899 304.63C203.456 324.187 227.086 326.095 242.124 326.095C257.161 326.095 278.644 327.049 324.831 298.906C371.018 270.763 410.76 223.062 458.021 223.062C505.282 223.062 522.468 246.913 529.986 258.361C537.505 269.809 594.433 343.267 671.77 343.267"
      stroke="#FDA900" stroke-width="2.90397" />
    <ellipse cx="96.9058" cy="275.409" rx="3.87114" ry="3.87756" fill="#FDA900" />
    <ellipse cx="161.747" cy="292.859" rx="3.87114" ry="3.87756" fill="#FDA900" />
    <ellipse cx="235.299" cy="325.818" rx="3.87113" ry="3.87756" fill="#FDA900" />
    <ellipse cx="307.883" cy="308.369" rx="3.87113" ry="3.87756" fill="#FDA900" />
    <ellipse cx="381.434" cy="256.991" rx="3.87113" ry="3.87756" fill="#FDA900" />
    <ellipse cx="454.986" cy="223.063" rx="3.87113" ry="3.87755" fill="#FDA900" />
    <ellipse cx="527.57" cy="255.052" rx="3.87115" ry="3.87756" fill="#FDA900" />
    <ellipse cx="668.866" cy="343.267" rx="3.87116" ry="3.87756" fill="#FDA900" />
    <ellipse cx="601.121" cy="323.879" rx="3.87113" ry="3.87756" fill="#FDA900" />
    <path
      d="M95.9377 344.236C124.546 337.477 193.35 317.104 239.697 289.682C297.629 255.405 290.119 222.093 310.503 222.093C330.887 222.093 352.343 308.993 457.48 308.993C562.617 308.993 536.869 256.853 604.458 256.853C658.528 256.853 672.608 256.853 672.89 256.853"
      stroke="#7878FF" stroke-width="2.90397" />
    <path opacity="0.2"
      d="M238.447 291.612C191.879 317.457 122.748 336.659 94.0024 343.029V361.685H673.705V256.991H604.509C536.598 256.991 562.907 309.813 457.269 309.813C351.63 309.813 331.751 222.093 311.27 222.093C290.789 222.093 296.655 259.306 238.447 291.612Z"
      fill="#7878FF" />
    <ellipse cx="97.8931" cy="344.236" rx="3.89062" ry="3.87756" fill="#7878FF" />
    <ellipse cx="162.088" cy="324.848" rx="3.89062" ry="3.87754" fill="#7878FF" />
    <ellipse cx="236.01" cy="291.889" rx="3.89062" ry="3.87754" fill="#7878FF" />
    <ellipse cx="309.838" cy="223.063" rx="3.89061" ry="3.87755" fill="#7878FF" />
    <ellipse cx="383.389" cy="289.95" rx="3.89061" ry="3.87756" fill="#7878FF" />
    <ellipse cx="456.941" cy="308.369" rx="3.89061" ry="3.87756" fill="#7878FF" />
    <ellipse cx="530.492" cy="295.767" rx="3.89063" ry="3.87756" fill="#7878FF" />
    <ellipse cx="611.786" cy="256.991" rx="3.89063" ry="3.87756" fill="#7878FF" />
    <path fill-rule="evenodd" clip-rule="evenodd"
      d="M204.33 163.93C202.726 163.93 201.426 165.23 201.426 166.834V184.127C201.426 185.731 202.726 187.031 204.33 187.031H231.816L236.021 191.895L240.225 187.031H270.138C271.742 187.031 273.042 185.731 273.042 184.127V166.834C273.042 165.23 271.742 163.93 270.138 163.93H204.33Z"
      fill="#FF0181" />
    <path
      d="M217.468 178.777V177.859C217.468 177.294 217.565 176.83 217.759 176.466C217.952 176.102 218.227 175.807 218.584 175.583C218.948 175.35 219.385 175.157 219.896 175.002L220.605 174.781C220.922 174.681 221.193 174.557 221.418 174.41C221.65 174.262 221.828 174.08 221.952 173.864C222.076 173.639 222.138 173.38 222.138 173.085V173.039C222.138 172.582 221.983 172.226 221.673 171.97C221.364 171.707 220.957 171.575 220.454 171.575C219.935 171.575 219.513 171.715 219.188 171.993C218.87 172.272 218.711 172.683 218.711 173.225V173.411H217.503V173.236C217.503 172.648 217.631 172.152 217.887 171.749C218.142 171.339 218.495 171.025 218.944 170.809C219.393 170.592 219.896 170.483 220.454 170.483C221.011 170.483 221.507 170.588 221.941 170.797C222.382 171.006 222.727 171.3 222.974 171.68C223.23 172.059 223.358 172.505 223.358 173.016V173.12C223.358 173.647 223.253 174.084 223.044 174.433C222.835 174.781 222.545 175.068 222.173 175.292C221.809 175.517 221.387 175.707 220.907 175.862L220.221 176.071C219.857 176.179 219.563 176.299 219.339 176.431C219.122 176.555 218.959 176.706 218.851 176.884C218.75 177.062 218.7 177.29 218.7 177.569V177.685H223.288V178.777H217.468ZM227.362 178.94C226.765 178.94 226.235 178.831 225.77 178.614C225.306 178.398 224.942 178.084 224.678 177.674C224.423 177.263 224.295 176.775 224.295 176.21V176.001H225.515V176.187C225.515 176.698 225.681 177.104 226.014 177.406C226.355 177.701 226.804 177.848 227.362 177.848C227.919 177.848 228.353 177.708 228.663 177.43C228.972 177.151 229.127 176.799 229.127 176.373V176.268C229.127 175.966 229.054 175.722 228.907 175.536C228.76 175.35 228.562 175.215 228.314 175.13C228.066 175.037 227.788 174.99 227.478 174.99H226.003V173.585L228.86 171.901V171.738H224.493V170.646H230.184V172.295L227.455 173.922V174.084H227.954C228.365 174.084 228.752 174.162 229.116 174.317C229.48 174.471 229.774 174.708 229.999 175.025C230.231 175.343 230.347 175.745 230.347 176.233V176.373C230.347 176.891 230.223 177.344 229.975 177.732C229.727 178.111 229.379 178.409 228.93 178.626C228.481 178.835 227.958 178.94 227.362 178.94ZM235.324 178.777V177.116H231.212V175.699L234.325 170.646H236.543V176.036H237.914V177.116H236.543V178.777H235.324ZM232.397 176.036H235.324V171.413H235.138L232.397 175.873V176.036ZM239.086 180.357V179.672H239.481C239.798 179.672 239.957 179.513 239.957 179.195V178.824H239.783C239.512 178.824 239.287 178.742 239.109 178.58C238.931 178.417 238.842 178.212 238.842 177.964C238.842 177.693 238.931 177.476 239.109 177.313C239.287 177.143 239.512 177.058 239.783 177.058C240.054 177.058 240.275 177.147 240.445 177.325C240.623 177.495 240.712 177.72 240.712 177.999V179.207C240.712 179.974 240.329 180.357 239.562 180.357H239.086ZM245.817 178.777V177.116H241.705V175.699L244.818 170.646H247.036V176.036H248.407V177.116H247.036V178.777H245.817ZM242.889 176.036H245.817V171.413H245.631L242.889 175.873V176.036ZM252.192 178.94C251.581 178.94 251.05 178.827 250.601 178.603C250.152 178.378 249.803 178.061 249.556 177.65C249.316 177.24 249.195 176.764 249.195 176.222V176.094H250.438V176.21C250.438 176.706 250.589 177.104 250.891 177.406C251.201 177.701 251.631 177.848 252.181 177.848C252.746 177.848 253.184 177.693 253.493 177.383C253.803 177.073 253.958 176.655 253.958 176.129V176.024C253.958 175.521 253.803 175.118 253.493 174.816C253.191 174.514 252.804 174.363 252.332 174.363C252.068 174.363 251.848 174.406 251.67 174.491C251.499 174.568 251.36 174.665 251.252 174.781C251.151 174.897 251.066 175.01 250.996 175.118H249.451V170.646H254.899V171.749H250.671V174.142H250.857C250.934 174.011 251.042 173.887 251.182 173.771C251.329 173.647 251.519 173.546 251.751 173.469C251.983 173.391 252.262 173.352 252.587 173.352C253.067 173.352 253.501 173.457 253.888 173.666C254.283 173.867 254.597 174.169 254.829 174.572C255.062 174.967 255.178 175.447 255.178 176.013V176.14C255.178 176.706 255.058 177.197 254.818 177.616C254.578 178.034 254.233 178.359 253.784 178.591C253.342 178.824 252.812 178.94 252.192 178.94Z"
      fill="#0E042D" />
    <path fill-rule="evenodd" clip-rule="evenodd"
      d="M424.017 183.318C422.414 183.318 421.114 184.618 421.114 186.222V203.515C421.114 205.119 422.414 206.419 424.017 206.419H451.503L455.708 211.282L459.913 206.419H489.826C491.429 206.419 492.73 205.119 492.73 203.515V186.222C492.73 184.618 491.429 183.318 489.826 183.318H424.017Z"
      fill="#FDA900" />
    <path
      d="M437.156 198.165V197.247C437.156 196.682 437.253 196.217 437.446 195.853C437.64 195.489 437.915 195.195 438.271 194.97C438.635 194.738 439.072 194.545 439.583 194.39L440.292 194.169C440.609 194.068 440.881 193.944 441.105 193.797C441.337 193.65 441.516 193.468 441.639 193.251C441.763 193.027 441.825 192.767 441.825 192.473V192.427C441.825 191.97 441.67 191.613 441.361 191.358C441.051 191.095 440.644 190.963 440.141 190.963C439.622 190.963 439.2 191.102 438.875 191.381C438.557 191.66 438.399 192.07 438.399 192.612V192.798H437.191V192.624C437.191 192.035 437.318 191.54 437.574 191.137C437.829 190.727 438.182 190.413 438.631 190.196C439.08 189.979 439.583 189.871 440.141 189.871C440.699 189.871 441.194 189.976 441.628 190.185C442.069 190.394 442.414 190.688 442.662 191.067C442.917 191.447 443.045 191.892 443.045 192.403V192.508C443.045 193.034 442.94 193.472 442.731 193.82C442.522 194.169 442.232 194.455 441.86 194.68C441.496 194.905 441.074 195.094 440.594 195.249L439.909 195.458C439.545 195.567 439.25 195.687 439.026 195.818C438.809 195.942 438.646 196.093 438.538 196.271C438.437 196.45 438.387 196.678 438.387 196.957V197.073H442.975V198.165H437.156ZM447.049 198.327C446.453 198.327 445.922 198.219 445.458 198.002C444.993 197.785 444.629 197.472 444.366 197.061C444.11 196.651 443.982 196.163 443.982 195.598V195.389H445.202V195.574C445.202 196.086 445.369 196.492 445.702 196.794C446.042 197.088 446.491 197.236 447.049 197.236C447.607 197.236 448.04 197.096 448.35 196.817C448.66 196.539 448.815 196.186 448.815 195.76V195.656C448.815 195.354 448.741 195.11 448.594 194.924C448.447 194.738 448.249 194.603 448.001 194.517C447.754 194.424 447.475 194.378 447.165 194.378H445.69V192.972L448.547 191.288V191.126H444.18V190.034H449.872V191.683L447.142 193.309V193.472H447.641C448.052 193.472 448.439 193.549 448.803 193.704C449.167 193.859 449.461 194.095 449.686 194.413C449.918 194.73 450.034 195.133 450.034 195.621V195.76C450.034 196.279 449.91 196.732 449.663 197.119C449.415 197.499 449.066 197.797 448.617 198.014C448.168 198.223 447.645 198.327 447.049 198.327ZM455.011 198.165V196.504H450.899V195.087L454.012 190.034H456.231V195.423H457.601V196.504H456.231V198.165H455.011ZM452.084 195.423H455.011V190.8H454.825L452.084 195.261V195.423ZM458.773 199.745V199.059H459.168C459.486 199.059 459.644 198.9 459.644 198.583V198.211H459.47C459.199 198.211 458.975 198.13 458.796 197.967C458.618 197.805 458.529 197.599 458.529 197.352C458.529 197.081 458.618 196.864 458.796 196.701C458.975 196.531 459.199 196.446 459.47 196.446C459.741 196.446 459.962 196.535 460.132 196.713C460.31 196.883 460.399 197.108 460.399 197.387V198.595C460.399 199.361 460.016 199.745 459.249 199.745H458.773ZM465.504 198.165V196.504H461.392V195.087L464.505 190.034H466.724V195.423H468.094V196.504H466.724V198.165H465.504ZM462.577 195.423H465.504V190.8H465.318L462.577 195.261V195.423ZM471.88 198.327C471.268 198.327 470.737 198.215 470.288 197.991C469.839 197.766 469.491 197.448 469.243 197.038C469.003 196.628 468.883 196.151 468.883 195.609V195.482H470.126V195.598C470.126 196.093 470.277 196.492 470.579 196.794C470.888 197.088 471.318 197.236 471.868 197.236C472.433 197.236 472.871 197.081 473.181 196.771C473.49 196.461 473.645 196.043 473.645 195.516V195.412C473.645 194.908 473.49 194.506 473.181 194.204C472.879 193.902 472.491 193.751 472.019 193.751C471.756 193.751 471.535 193.793 471.357 193.879C471.187 193.956 471.047 194.053 470.939 194.169C470.838 194.285 470.753 194.397 470.683 194.506H469.138V190.034H474.586V191.137H470.358V193.53H470.544C470.621 193.398 470.73 193.275 470.869 193.158C471.016 193.034 471.206 192.934 471.438 192.856C471.671 192.779 471.949 192.74 472.275 192.74C472.755 192.74 473.188 192.845 473.576 193.054C473.971 193.255 474.284 193.557 474.516 193.96C474.749 194.355 474.865 194.835 474.865 195.4V195.528C474.865 196.093 474.745 196.585 474.505 197.003C474.265 197.421 473.92 197.747 473.471 197.979C473.03 198.211 472.499 198.327 471.88 198.327Z"
      fill="#0E042D" />
    <path fill-rule="evenodd" clip-rule="evenodd"
      d="M276.914 183.318C275.31 183.318 274.01 184.618 274.01 186.222V203.515C274.01 205.119 275.31 206.419 276.914 206.419H304.4L308.604 211.282L312.809 206.419H342.722C344.326 206.419 345.626 205.119 345.626 203.515V186.222C345.626 184.618 344.326 183.318 342.722 183.318H276.914Z"
      fill="#94A0FB" />
    <path
      d="M290.052 198.165V197.247C290.052 196.682 290.149 196.217 290.343 195.853C290.536 195.489 290.811 195.195 291.167 194.97C291.531 194.738 291.969 194.545 292.48 194.39L293.188 194.169C293.506 194.068 293.777 193.944 294.002 193.797C294.234 193.65 294.412 193.468 294.536 193.251C294.66 193.027 294.722 192.767 294.722 192.473V192.427C294.722 191.97 294.567 191.613 294.257 191.358C293.947 191.095 293.541 190.963 293.037 190.963C292.519 190.963 292.097 191.102 291.771 191.381C291.454 191.66 291.295 192.07 291.295 192.612V192.798H290.087V192.624C290.087 192.035 290.215 191.54 290.47 191.137C290.726 190.727 291.078 190.413 291.527 190.196C291.977 189.979 292.48 189.871 293.037 189.871C293.595 189.871 294.091 189.976 294.524 190.185C294.966 190.394 295.31 190.688 295.558 191.067C295.814 191.447 295.941 191.892 295.941 192.403V192.508C295.941 193.034 295.837 193.472 295.628 193.82C295.419 194.169 295.128 194.455 294.757 194.68C294.393 194.905 293.971 195.094 293.49 195.249L292.805 195.458C292.441 195.567 292.147 195.687 291.922 195.818C291.706 195.942 291.543 196.093 291.434 196.271C291.334 196.45 291.283 196.678 291.283 196.957V197.073H295.872V198.165H290.052ZM299.945 198.327C299.349 198.327 298.819 198.219 298.354 198.002C297.889 197.785 297.525 197.472 297.262 197.061C297.007 196.651 296.879 196.163 296.879 195.598V195.389H298.099V195.574C298.099 196.086 298.265 196.492 298.598 196.794C298.939 197.088 299.388 197.236 299.945 197.236C300.503 197.236 300.937 197.096 301.246 196.817C301.556 196.539 301.711 196.186 301.711 195.76V195.656C301.711 195.354 301.638 195.11 301.49 194.924C301.343 194.738 301.146 194.603 300.898 194.517C300.65 194.424 300.371 194.378 300.062 194.378H298.586V192.972L301.444 191.288V191.126H297.076V190.034H302.768V191.683L300.038 193.309V193.472H300.538C300.948 193.472 301.336 193.549 301.699 193.704C302.063 193.859 302.358 194.095 302.582 194.413C302.815 194.73 302.931 195.133 302.931 195.621V195.76C302.931 196.279 302.807 196.732 302.559 197.119C302.311 197.499 301.963 197.797 301.514 198.014C301.064 198.223 300.542 198.327 299.945 198.327ZM307.908 198.165V196.504H303.795V195.087L306.909 190.034H309.127V195.423H310.498V196.504H309.127V198.165H307.908ZM304.98 195.423H307.908V190.8H307.722L304.98 195.261V195.423ZM311.67 199.745V199.059H312.065C312.382 199.059 312.541 198.9 312.541 198.583V198.211H312.367C312.096 198.211 311.871 198.13 311.693 197.967C311.515 197.805 311.426 197.599 311.426 197.352C311.426 197.081 311.515 196.864 311.693 196.701C311.871 196.531 312.096 196.446 312.367 196.446C312.638 196.446 312.858 196.535 313.029 196.713C313.207 196.883 313.296 197.108 313.296 197.387V198.595C313.296 199.361 312.913 199.745 312.146 199.745H311.67ZM318.4 198.165V196.504H314.288V195.087L317.401 190.034H319.62V195.423H320.991V196.504H319.62V198.165H318.4ZM315.473 195.423H318.4V190.8H318.215L315.473 195.261V195.423ZM324.776 198.327C324.164 198.327 323.634 198.215 323.185 197.991C322.736 197.766 322.387 197.448 322.139 197.038C321.899 196.628 321.779 196.151 321.779 195.609V195.482H323.022V195.598C323.022 196.093 323.173 196.492 323.475 196.794C323.785 197.088 324.215 197.236 324.765 197.236C325.33 197.236 325.767 197.081 326.077 196.771C326.387 196.461 326.542 196.043 326.542 195.516V195.412C326.542 194.908 326.387 194.506 326.077 194.204C325.775 193.902 325.388 193.751 324.916 193.751C324.652 193.751 324.432 193.793 324.253 193.879C324.083 193.956 323.944 194.053 323.835 194.169C323.735 194.285 323.649 194.397 323.58 194.506H322.035V190.034H327.483V191.137H323.254V193.53H323.44C323.518 193.398 323.626 193.275 323.766 193.158C323.913 193.034 324.102 192.934 324.335 192.856C324.567 192.779 324.846 192.74 325.171 192.74C325.651 192.74 326.085 192.845 326.472 193.054C326.867 193.255 327.181 193.557 327.413 193.96C327.645 194.355 327.761 194.835 327.761 195.4V195.528C327.761 196.093 327.641 196.585 327.401 197.003C327.161 197.421 326.817 197.747 326.368 197.979C325.926 198.211 325.396 198.327 324.776 198.327Z"
      fill="#0E042D" />
    <path
      d="M713.868 20V456.461C713.868 467.24 705.131 475.977 694.352 475.977H377H54C43.2216 475.977 34.484 467.24 34.484 456.461V20C34.484 9.22162 43.2216 0.483995 54 0.483995H378.5H694.352C705.131 0.483995 713.868 9.22161 713.868 20Z"
      stroke="url(#paint1_linear_9_1938)" stroke-width="0.96799" />
  </g>
  <defs>
    <filter id="filter0_f_9_1938" x="-165.291" y="-170.771" width="993.578" height="898.396"
      filterUnits="userSpaceOnUse" color-interpolation-filters="sRGB">
      <feFlood flood-opacity="0" result="BackgroundImageFix" />
      <feBlend mode="normal" in="SourceGraphic" in2="BackgroundImageFix" result="shape" />
      <feGaussianBlur stdDeviation="145.948" result="effect1_foregroundBlur_9_1938" />
    </filter>
    <radialGradient id="paint0_radial_9_1938" cx="0" cy="0" r="1" gradientUnits="userSpaceOnUse"
      gradientTransform="translate(582.734 299.16) rotate(90) scale(246.709 343.563)">
      <stop stop-color="white" />
      <stop offset="1" stop-color="white" stop-opacity="0" />
    </radialGradient>
    <linearGradient id="paint1_linear_9_1938" x1="-15.4186" y1="393.191" x2="310.162" y2="-210.571"
      gradientUnits="userSpaceOnUse">
      <stop stop-color="#6733FF" />
      <stop offset="0.0834" stop-color="#8E51BD" />
      <stop offset="0.1934" stop-color="#BD766D" />
      <stop offset="0.2839" stop-color="#DF9132" />
      <stop offset="0.3504" stop-color="#F5A20E" />
      <stop offset="0.3857" stop-color="#FDA800" />
      <stop offset="0.5292" stop-color="#FE7329" />
      <stop offset="0.6795" stop-color="#FE424F" />
      <stop offset="0.8118" stop-color="#FF1F6A" />
      <stop offset="0.9196" stop-color="#FF097B" />
      <stop offset="0.9894" stop-color="#FF0181" />
    </linearGradient>
    <clipPath id="clip0_9_1938">
      <rect width="714.352" height="516" fill="white" />
    </clipPath>
  </defs>
</svg>