<svg width="40" height="40" viewBox="0 0 40 40" fill="none" xmlns="http://www.w3.org/2000/svg">
<rect width="30" height="30" transform="translate(5 5)" fill="#251B59"/>
<rect x="0.5" y="0.5" width="39" height="39" rx="3.5" fill="#251B59" stroke="url(#paint0_linear_67_5478)"/>
<path d="M24.9927 16.7021H25.7781V21.9385H24.9927V16.7021Z" fill="white"/>
<path d="M14.6439 16.9312C14.9821 16.9312 15.2584 16.6549 15.2584 16.3167C15.2584 15.9785 14.9821 15.7021 14.6439 15.7021C14.3057 15.7021 14.0293 15.9785 14.0293 16.3167C14.0257 16.6549 14.3021 16.9312 14.6439 16.9312Z" fill="white"/>
<path d="M21.4038 19.1528H22.1893V21.9419H21.4038V19.1528Z" fill="white"/>
<path d="M17.8145 16.7021H18.5999V21.9385H17.8145V16.7021Z" fill="white"/>
<path d="M21.7967 16.6402C22.1361 16.6402 22.4112 16.3651 22.4112 16.0257C22.4112 15.6863 22.1361 15.4111 21.7967 15.4111C21.4573 15.4111 21.1821 15.6863 21.1821 16.0257C21.1821 16.3651 21.4573 16.6402 21.7967 16.6402Z" fill="white"/>
<path d="M18.1673 12.691C18.5055 12.691 18.7818 12.4146 18.7818 12.0765C18.7818 11.7383 18.5055 11.4619 18.1673 11.4619C17.8291 11.4619 17.5527 11.7383 17.5527 12.0765C17.5527 12.4146 17.8291 12.691 18.1673 12.691Z" fill="white"/>
<path d="M25.3494 12.96C25.6876 12.96 25.964 12.6837 25.964 12.3455C25.964 12.0073 25.6876 11.731 25.3494 11.731C25.0112 11.731 24.7349 12.0073 24.7349 12.3455C24.7349 12.6837 25.0112 12.96 25.3494 12.96Z" fill="white"/>
<path d="M29.6149 10.8802C29.6149 10.2039 28.9749 9.65479 28.1858 9.65479H11.8222C11.0331 9.65479 10.3931 10.2039 10.3931 10.8802V23.7457H29.6185V10.8802H29.6149ZM14.644 14.9711C14.8294 14.9711 15.004 15.0075 15.164 15.0766L17.0112 12.7457C16.8949 12.5457 16.8258 12.3202 16.8258 12.073C16.8258 11.3311 17.4294 10.7311 18.1676 10.7311C18.9058 10.7311 19.5094 11.3348 19.5094 12.073C19.5094 12.2875 19.4549 12.4875 19.364 12.6657L21.1458 14.8548C21.3385 14.7493 21.5567 14.6839 21.7931 14.6839C22.0622 14.6839 22.3094 14.7639 22.5203 14.9021L24.2112 13.0548C24.0803 12.8475 24.004 12.6075 24.004 12.3457C24.004 11.6039 24.6076 11.0039 25.3458 11.0039C26.0876 11.0039 26.6876 11.6075 26.6876 12.3457C26.6876 13.0875 26.084 13.6875 25.3458 13.6875C25.1313 13.6875 24.9313 13.633 24.7494 13.5421L23.0003 15.4511C23.084 15.6257 23.1349 15.8221 23.1349 16.0293C23.1349 16.7711 22.5312 17.3711 21.7931 17.3711C21.0549 17.3711 20.4513 16.7675 20.4513 16.0293C20.4513 15.7893 20.5203 15.5675 20.6294 15.3711L18.8731 13.2111C18.6658 13.3384 18.4258 13.4148 18.1676 13.4148C17.9385 13.4148 17.724 13.353 17.5349 13.2511L15.7276 15.5311C15.8876 15.753 15.9822 16.0221 15.9822 16.313C15.9822 17.0548 15.3785 17.6548 14.6403 17.6548C13.8985 17.6548 13.2985 17.0511 13.2985 16.313C13.2985 15.5748 13.9022 14.9711 14.644 14.9711ZM27.284 22.6693H12.7131C12.5131 22.6693 12.3494 22.5057 12.3494 22.3057C12.3494 22.1057 12.5131 21.9421 12.7131 21.9421H13.4949V19.7675C13.4949 19.5675 13.6585 19.4039 13.8585 19.4039H15.3712C15.5712 19.4039 15.7349 19.5675 15.7349 19.7675V21.9421H17.0876V16.3421C17.0876 16.1421 17.2512 15.9784 17.4512 15.9784H18.964C19.164 15.9784 19.3276 16.1421 19.3276 16.3421V21.9421H20.6803V18.7893C20.6803 18.5893 20.844 18.4257 21.044 18.4257H22.5567C22.7567 18.4257 22.9203 18.5893 22.9203 18.7893V21.9421H24.2731V16.3421C24.2731 16.1421 24.4367 15.9784 24.6367 15.9784H26.1494C26.3494 15.9784 26.5131 16.1421 26.5131 16.3421V21.9421H27.2949C27.4949 21.9421 27.6585 22.1057 27.6585 22.3057C27.6585 22.5057 27.4876 22.6693 27.284 22.6693Z" fill="white"/>
<path d="M14.2222 20.1313H15.0076V21.9423H14.2222V20.1313Z" fill="white"/>
<path d="M29.7347 24.4731H10.2656L8.3856 28.9168C8.32378 29.2295 8.40378 29.5459 8.61105 29.8077C8.88014 30.1422 9.32014 30.3459 9.79287 30.3459H30.2038C30.6765 30.3459 31.1201 30.1459 31.3856 29.8077C31.5965 29.5459 31.6765 29.2295 31.6111 28.9168L29.7347 24.4731ZM25.3856 28.7241H14.6147C14.4147 28.7241 14.2511 28.5604 14.2511 28.3604C14.2511 28.1604 14.4147 27.9968 14.6147 27.9968H25.3856C25.5856 27.9968 25.7492 28.1604 25.7492 28.3604C25.7492 28.5604 25.5856 28.7241 25.3856 28.7241Z" fill="white"/>
<defs>
<linearGradient id="paint0_linear_67_5478" x1="-2.90547" y1="33.0092" x2="28.7216" y2="-8.06413" gradientUnits="userSpaceOnUse">
<stop stop-color="#6733FF"/>
<stop offset="0.0834" stop-color="#8E51BD"/>
<stop offset="0.1934" stop-color="#BD766D"/>
<stop offset="0.2839" stop-color="#DF9132"/>
<stop offset="0.3504" stop-color="#F5A20E"/>
<stop offset="0.3857" stop-color="#FDA800"/>
<stop offset="0.5292" stop-color="#FE7329"/>
<stop offset="0.6795" stop-color="#FE424F"/>
<stop offset="0.8118" stop-color="#FF1F6A"/>
<stop offset="0.9196" stop-color="#FF097B"/>
<stop offset="0.9894" stop-color="#FF0181"/>
</linearGradient>
</defs>
</svg>
