<svg width="40" height="40" viewBox="0 0 40 40" fill="none" xmlns="http://www.w3.org/2000/svg">
<rect width="30" height="30" transform="translate(5 5)" fill="#251B59"/>
<rect x="0.5" y="0.5" width="39" height="39" rx="3.5" fill="#251B59" stroke="url(#paint0_linear_67_5443)"/>
<rect width="32" height="32" transform="translate(4 3)" fill="#251B59"/>
<path d="M26.6667 13.1667H24.1667V11.5C24.1652 10.1199 23.0468 9.00151 21.6667 9H18.3334C16.9533 9.00151 15.8349 10.1199 15.8334 11.5V13.1667H13.3334C11.4932 13.1688 10.0021 14.6599 10 16.5V25.6667C10.0021 27.5068 11.4932 28.9979 13.3333 29H26.6667C28.5068 28.9979 29.9979 27.5068 30 25.6667V16.5C29.9979 14.6599 28.5068 13.1688 26.6667 13.1667ZM17.5 11.5C17.5006 11.04 17.8734 10.6673 18.3334 10.6667H21.6667C22.1267 10.6673 22.4994 11.04 22.5 11.5V13.1667H17.5V11.5ZM23.3333 18.1667H16.6667C16.2064 18.1667 15.8334 17.7936 15.8334 17.3334C15.8334 16.8731 16.2064 16.5 16.6667 16.5H23.3334C23.7936 16.5 24.1667 16.8731 24.1667 17.3334C24.1667 17.7936 23.7936 18.1667 23.3333 18.1667Z" fill="white"/>
<defs>
<linearGradient id="paint0_linear_67_5443" x1="-2.90547" y1="33.0092" x2="28.7216" y2="-8.06413" gradientUnits="userSpaceOnUse">
<stop stop-color="#6733FF"/>
<stop offset="0.0834" stop-color="#8E51BD"/>
<stop offset="0.1934" stop-color="#BD766D"/>
<stop offset="0.2839" stop-color="#DF9132"/>
<stop offset="0.3504" stop-color="#F5A20E"/>
<stop offset="0.3857" stop-color="#FDA800"/>
<stop offset="0.5292" stop-color="#FE7329"/>
<stop offset="0.6795" stop-color="#FE424F"/>
<stop offset="0.8118" stop-color="#FF1F6A"/>
<stop offset="0.9196" stop-color="#FF097B"/>
<stop offset="0.9894" stop-color="#FF0181"/>
</linearGradient>
</defs>
</svg>
