<svg width="56" height="56" viewBox="0 0 56 56" fill="none" xmlns="http://www.w3.org/2000/svg">
<g clip-path="url(#clip0_9_1209)">
<path d="M28.2225 27.8737C29.0054 27.7467 29.5372 27.0092 29.4103 26.2262C29.2834 25.4433 28.5458 24.9115 27.7629 25.0384C26.9799 25.1653 26.4481 25.9029 26.575 26.6858C26.7019 27.4688 27.4395 28.0006 28.2225 27.8737Z" fill="white"/>
<path d="M49.8761 9.50146H6.1239C5.67076 9.50146 5.30359 9.86875 5.30359 10.3218V38.6072C5.30359 39.0603 5.67076 39.4276 6.1239 39.4276H10.9966C11.4497 39.4276 11.8169 39.0603 11.8169 38.6072C11.8169 38.1542 11.4497 37.7869 10.9966 37.7869H6.94421V29.1447C7.36071 29.3605 7.83289 29.4833 8.33339 29.4833H10.1662C11.5526 29.4833 12.7238 28.5469 13.0824 27.2736H15.5168C15.8756 28.5469 17.0466 29.4833 18.4332 29.4833H20.266C20.7666 29.4833 21.2389 29.3605 21.6554 29.1446V29.4364C21.6554 30.498 22.519 31.3616 23.5806 31.3616H25.3087C25.0928 31.7781 24.97 32.2504 24.97 32.751V34.5838C24.97 35.9702 25.9063 37.1414 27.1797 37.5V37.7869H14.8247C14.3715 37.7869 14.0044 38.1542 14.0044 38.6072C14.0044 39.0603 14.3715 39.4276 14.8247 39.4276H49.8761C50.3292 39.4276 50.6964 39.0603 50.6964 38.6072V10.3218C50.6964 9.86875 50.3291 9.50146 49.8761 9.50146ZM49.0558 26.4574C49.0535 27.2216 48.4314 27.8427 47.6666 27.8427H45.8338C45.0676 27.8427 44.4444 27.2193 44.4444 26.4533C44.4444 25.6871 45.0676 25.0638 45.8338 25.0638H47.6666C48.4314 25.0638 49.0535 25.6848 49.0558 26.449V26.4574ZM49.0558 11.1421V23.7618C48.6393 23.546 48.1671 23.4232 47.6666 23.4232H45.8338C44.4474 23.4232 43.2762 24.3596 42.9175 25.633H40.4832C40.1244 24.3596 38.9534 23.4232 37.5668 23.4232H35.734C35.2334 23.4232 34.7611 23.546 34.3446 23.7619V23.4701C34.3446 22.4085 33.481 21.5449 32.4194 21.5449H32.3559V18.0562C32.3559 15.6545 30.4019 13.7004 28 13.7004C25.5981 13.7004 23.6441 15.6545 23.6441 18.0562V21.5449H23.5806C22.5191 21.5449 21.6554 22.4085 21.6554 23.4701V23.7619C21.2389 23.546 20.7666 23.4232 20.266 23.4232H18.4332C17.0466 23.4232 15.8754 24.3596 15.5168 25.633H13.0824C12.7237 24.3596 11.5526 23.4232 10.1662 23.4232H8.33339C7.83278 23.4232 7.3606 23.5459 6.94421 23.7618V11.1421H49.0558ZM38.9563 26.4533C38.9563 27.2193 38.333 27.8427 37.5668 27.8427H35.734C34.9678 27.8427 34.3446 27.2193 34.3446 26.4533C34.3446 25.6871 34.9678 25.0638 35.734 25.0638H37.5668C38.333 25.0638 38.9563 25.6871 38.9563 26.4533ZM25.2848 21.545V18.0563C25.2848 16.5592 26.5029 15.3411 28 15.3411C29.4971 15.3411 30.7152 16.5592 30.7152 18.0563V21.545H25.2848ZM10.1662 27.8427H8.33339C7.56864 27.8427 6.94651 27.2216 6.94421 26.4574V26.449C6.94651 25.6848 7.56864 25.0638 8.33339 25.0638H10.1662C10.9324 25.0638 11.5556 25.6871 11.5556 26.4533C11.5556 27.2193 10.9324 27.8427 10.1662 27.8427ZM20.266 27.8427H18.4332C17.667 27.8427 17.0437 27.2193 17.0437 26.4533C17.0437 25.6871 17.667 25.0638 18.4332 25.0638H20.266C21.0322 25.0638 21.6554 25.6871 21.6554 26.4533C21.6554 27.2193 21.0322 27.8427 20.266 27.8427ZM23.296 29.4364V23.4701C23.296 23.3131 23.4236 23.1855 23.5806 23.1855H32.4194C32.5764 23.1855 32.704 23.3131 32.704 23.4701V29.4364C32.704 29.5933 32.5764 29.721 32.4194 29.721H23.5806C23.4236 29.721 23.296 29.5933 23.296 29.4364ZM26.6106 34.5838V32.751C26.6106 31.9849 27.2338 31.3616 28 31.3616C28.7662 31.3616 29.3894 31.9849 29.3894 32.751V34.5838C29.3894 35.3498 28.7662 35.9732 28 35.9732C27.2338 35.9732 26.6106 35.3498 26.6106 34.5838ZM28.8203 37.7869V37.5C30.0937 37.1414 31.03 35.9702 31.03 34.5838V32.751C31.03 32.2504 30.9072 31.7781 30.6913 31.3616H32.4194C33.4809 31.3616 34.3446 30.498 34.3446 29.4364V29.1446C34.7611 29.3605 35.2334 29.4833 35.734 29.4833H37.5668C38.9534 29.4833 40.1244 28.5469 40.4832 27.2736H42.9175C43.2763 28.5469 44.4474 29.4833 45.8338 29.4833H47.6666C48.1672 29.4833 48.6394 29.3606 49.0558 29.1447V37.7869H28.8203Z" fill="url(#paint0_linear_9_1209)"/>
<path d="M54.2959 41.3219H54.2325V8.99612C54.2325 7.32552 52.8729 5.96643 51.2017 5.96643H37.1766C36.7234 5.96643 36.3562 6.33371 36.3562 6.78674C36.3562 7.23977 36.7234 7.60706 37.1766 7.60706H51.2017C51.9682 7.60706 52.5919 8.23016 52.5919 8.99612V41.3219H47.6405C47.1873 41.3219 46.8202 41.6892 46.8202 42.1422C46.8202 42.5952 47.1873 42.9625 47.6405 42.9625H54.2959C54.3309 42.9625 54.3594 42.991 54.3594 43.026V43.9097C54.3594 46.3818 52.3482 48.393 49.8761 48.393H6.12391C3.6517 48.393 1.64062 46.3818 1.64062 43.9097V43.026C1.64062 42.991 1.66906 42.9625 1.70406 42.9625H20.7678L21.2083 44.3719C21.6056 45.6437 22.7679 46.4982 24.1002 46.4982H31.8999C33.2323 46.4982 34.3946 45.6437 34.7919 44.3719L35.2323 42.9625H43.8125C44.2656 42.9625 44.6328 42.5952 44.6328 42.1422C44.6328 41.6892 44.2656 41.3219 43.8125 41.3219H3.40812V8.99612C3.40812 8.23016 4.03167 7.60706 4.79828 7.60706H33.3484C33.8016 7.60706 34.1687 7.23977 34.1687 6.78674C34.1687 6.33371 33.8016 5.96643 33.3484 5.96643H4.79828C3.12714 5.96643 1.7675 7.32552 1.7675 8.99612V41.3219H1.70406C0.764422 41.3219 0 42.0863 0 43.026V43.9097C0 47.2864 2.74717 50.0336 6.12391 50.0336H49.8761C53.2528 50.0336 56 47.2864 56 43.9097V43.026C56 42.0863 55.2356 41.3219 54.2959 41.3219ZM33.2259 43.8826C33.0436 44.4658 32.5107 44.8576 31.8998 44.8576H24.1001C23.4892 44.8576 22.9563 44.4657 22.774 43.8826L22.4864 42.9625H33.5134L33.2259 43.8826Z" fill="white"/>
</g>
<defs>
<linearGradient id="paint0_linear_9_1209" x1="2.0064" y1="34.1974" x2="21.7637" y2="-4.72198" gradientUnits="userSpaceOnUse">
<stop stop-color="#6733FF"/>
<stop offset="0.0834" stop-color="#8E51BD"/>
<stop offset="0.1934" stop-color="#BD766D"/>
<stop offset="0.2839" stop-color="#DF9132"/>
<stop offset="0.3504" stop-color="#F5A20E"/>
<stop offset="0.3857" stop-color="#FDA800"/>
<stop offset="0.5292" stop-color="#FE7329"/>
<stop offset="0.6795" stop-color="#FE424F"/>
<stop offset="0.8118" stop-color="#FF1F6A"/>
<stop offset="0.9196" stop-color="#FF097B"/>
<stop offset="0.9894" stop-color="#FF0181"/>
</linearGradient>
<clipPath id="clip0_9_1209">
<rect width="56" height="56" fill="white"/>
</clipPath>
</defs>
</svg>
