<svg width="56" height="56" viewBox="0 0 56 56" fill="none" xmlns="http://www.w3.org/2000/svg">
<g clip-path="url(#clip0_9_1084)">
<path d="M31.9776 26.3896H33.3034C34.9741 26.3896 36.3334 25.0303 36.3334 23.3596V20.7079C36.3334 20.2549 35.9661 19.8876 35.5131 19.8876H29.7679H26.2323H20.4871C20.034 19.8876 19.6667 20.2549 19.6667 20.7079V23.3596C19.6667 25.0303 21.0261 26.3896 22.6968 26.3896H24.0226C25.6933 26.3896 27.0526 25.0303 27.0526 23.3596V21.5282H28.9475V23.3596C28.9475 25.0304 30.3067 26.3896 31.9776 26.3896ZM34.6928 23.3596C34.6928 24.1256 34.0695 24.749 33.3034 24.749H31.9776C31.2115 24.749 30.5882 24.1256 30.5882 23.3596V21.5282H34.6928V23.3596ZM25.4119 23.3596C25.4119 24.1256 24.7886 24.749 24.0225 24.749H22.6967C21.9306 24.749 21.3073 24.1256 21.3073 23.3596V21.5282H25.4119V23.3596Z" fill="white"/>
<path d="M41.4159 40.9812V35.6824C41.9814 34.3571 45.6138 25.584 45.6138 18.9405C45.6138 14.017 44.0463 9.25706 41.3131 5.8812C41.0279 5.52912 40.5114 5.47477 40.1594 5.7598C39.8073 6.04483 39.753 6.56141 40.038 6.91348C42.5388 10.0025 43.9732 14.3861 43.9732 18.9404C43.9732 23.8923 41.7442 30.3365 40.5615 33.4072C40.2008 33.0348 39.746 32.7545 39.2355 32.605L39.6521 22.3129C39.7983 18.7219 37.9572 15.3702 34.8472 13.5659L32.8466 12.4053C30.1611 10.8481 26.868 10.6783 24.0377 11.9512C23.6245 12.137 23.4402 12.6226 23.626 13.0357C23.8119 13.449 24.2975 13.6333 24.7106 13.4474C27.0602 12.3908 29.794 12.5318 32.0234 13.8246L34.0239 14.985C36.6057 16.4829 38.1342 19.2652 38.0128 22.2464L37.7892 27.7678C37.2344 29.5961 36.186 31.2189 34.7452 32.483H21.304C19.8324 31.1869 18.7652 29.519 18.2054 27.6368L17.9872 22.2464C17.8738 19.4488 19.1909 16.8435 21.5106 15.277C21.8861 15.0234 21.9849 14.5135 21.7313 14.138C21.4778 13.7625 20.9679 13.6637 20.5924 13.9173C17.798 15.8045 16.2112 18.943 16.3479 22.3128L16.7645 32.6051C16.2541 32.7545 15.7992 33.0347 15.4386 33.4073C14.2559 30.3366 12.0268 23.8924 12.0268 18.9405C12.0269 12.515 15.3811 1.64062 27.953 1.64062H28.0471C31.7385 1.64062 34.8952 2.57688 37.4296 4.42334C37.7959 4.69011 38.3089 4.6095 38.5757 4.24331C38.8425 3.87713 38.7619 3.36405 38.3957 3.09717C35.5748 1.04202 32.093 0 28.0471 0H27.953C22.0858 0 17.3347 2.2458 14.213 6.49447C11.7811 9.80448 10.3863 14.3409 10.3863 18.9405C10.3863 25.584 14.0188 34.3572 14.5842 35.6825V40.9813C11.4804 42.6513 9.50146 45.9325 9.50146 49.4857V55.1798C9.50146 55.6328 9.86875 56.0001 10.3218 56.0001H45.6783C46.1314 56.0001 46.4987 55.6328 46.4987 55.1798V49.4857C46.4987 45.9324 44.5196 42.6512 41.4159 40.9812ZM11.1421 49.4856C11.1421 46.8442 12.4593 44.384 14.5842 42.9031V49.0638C13.5962 49.1443 12.8166 49.9725 12.8166 50.9808V51.8656C12.8166 52.8017 13.1298 53.6656 13.6561 54.3594H11.1421V49.4856ZM16.951 54.3594C15.5759 54.3594 14.4572 53.2407 14.4572 51.8656V50.9808C14.4572 50.8239 14.5848 50.6964 14.7416 50.6964H33.599C34.052 50.6964 34.4193 50.3291 34.4193 49.8761C34.4193 49.4231 34.052 49.0558 33.599 49.0558H16.2249V35.5131C16.2249 34.747 16.8482 34.1237 17.6142 34.1237H38.3858C39.1518 34.1237 39.7752 34.747 39.7752 35.5131V49.0558H37.4271C36.9741 49.0558 36.6068 49.4231 36.6068 49.8761C36.6068 50.3291 36.9741 50.6964 37.4271 50.6964H41.2585C41.4153 50.6964 41.5429 50.824 41.5429 50.9808V51.8656C41.5429 53.2407 40.4242 54.3594 39.0491 54.3594H16.951ZM44.858 54.3594H42.344C42.8704 53.6656 43.1835 52.8017 43.1835 51.8656V50.9808C43.1835 49.9725 42.4038 49.1443 41.4159 49.0638V42.9031C43.5409 44.384 44.858 46.8442 44.858 49.4856V54.3594Z" fill="white"/>
<path d="M28.0001 38.4493C26.2074 38.4493 24.749 39.9077 24.749 41.7004C24.749 43.4931 26.2074 44.9514 28.0001 44.9514C29.7927 44.9514 31.2511 43.493 31.2511 41.7003C31.2511 39.9076 29.7927 38.4493 28.0001 38.4493ZM28.0001 43.3107C27.1121 43.3107 26.3896 42.5883 26.3896 41.7003C26.3896 40.8123 27.1121 40.0899 28.0001 40.0899C28.8881 40.0899 29.6105 40.8123 29.6105 41.7003C29.6105 42.5883 28.8881 43.3107 28.0001 43.3107Z" fill="url(#paint0_linear_9_1084)"/>
</g>
<defs>
<linearGradient id="paint0_linear_9_1084" x1="24.2767" y1="43.815" x2="29.4177" y2="37.1384" gradientUnits="userSpaceOnUse">
<stop stop-color="#6733FF"/>
<stop offset="0.0834" stop-color="#8E51BD"/>
<stop offset="0.1934" stop-color="#BD766D"/>
<stop offset="0.2839" stop-color="#DF9132"/>
<stop offset="0.3504" stop-color="#F5A20E"/>
<stop offset="0.3857" stop-color="#FDA800"/>
<stop offset="0.5292" stop-color="#FE7329"/>
<stop offset="0.6795" stop-color="#FE424F"/>
<stop offset="0.8118" stop-color="#FF1F6A"/>
<stop offset="0.9196" stop-color="#FF097B"/>
<stop offset="0.9894" stop-color="#FF0181"/>
</linearGradient>
<clipPath id="clip0_9_1084">
<rect width="56" height="56" fill="white"/>
</clipPath>
</defs>
</svg>
