<svg width="56" height="52" viewBox="0 0 56 52" fill="none" xmlns="http://www.w3.org/2000/svg">
<path d="M48.1086 12.8991C48.5618 12.8991 48.9289 12.5318 48.9289 12.0788V8.54321C48.9289 8.09018 48.5618 7.7229 48.1086 7.7229H38.1648C37.7117 7.7229 37.3445 8.09018 37.3445 8.54321V12.0788C37.3445 12.5318 37.7117 12.8991 38.1648 12.8991H48.1086ZM38.9851 9.36353H47.2883V11.2584H38.9851V9.36353Z" fill="white"/>
<path d="M17.8352 7.7229H7.89142C7.43839 7.7229 7.07111 8.09018 7.07111 8.54321V12.0788C7.07111 12.5318 7.43839 12.8991 7.89142 12.8991H17.8352C18.2883 12.8991 18.6556 12.5318 18.6556 12.0788V8.54321C18.6556 8.09007 18.2883 7.7229 17.8352 7.7229ZM17.0149 11.2584H8.71173V9.36353H17.0149V11.2584Z" fill="url(#paint0_linear_9_1228)"/>
<path d="M28 7.72278C26.7922 7.72278 25.6881 8.33375 25.0466 9.35717L13.1512 28.3332C12.4677 29.4234 12.4316 30.7465 13.0547 31.8725C13.6778 32.9984 14.8179 33.6705 16.1047 33.6705H39.8954C41.1822 33.6705 42.3223 32.9982 42.9455 31.8725C43.5686 30.7467 43.5324 29.4234 42.8489 28.3332L30.9536 9.35717C30.3121 8.33375 29.2079 7.72278 28 7.72278ZM41.5099 31.0781C41.1801 31.674 40.5766 32.0298 39.8954 32.0298H16.1047C15.4235 32.0298 14.82 31.674 14.4901 31.0781C14.1604 30.4821 14.1794 29.7816 14.5412 29.2046L26.4366 10.2287C26.7813 9.67884 27.3511 9.36351 28 9.36351C28.6489 9.36351 29.2189 9.67884 29.5635 10.2287L41.4588 29.2046C41.8205 29.7816 41.8397 30.4821 41.5099 31.0781Z" fill="url(#paint1_linear_9_1228)"/>
<path d="M25.4119 15.9457V24.0112C25.4119 24.6943 25.6783 25.3159 26.1122 25.779C25.6783 26.242 25.4119 26.8637 25.4119 27.5469C25.4119 28.9739 26.5729 30.135 28 30.135C29.427 30.135 30.588 28.974 30.588 27.5469C30.588 26.8638 30.3216 26.2421 29.8877 25.779C30.3216 25.3161 30.588 24.6944 30.588 24.0112V15.9457C30.588 14.5187 29.427 13.3575 28 13.3575C26.573 13.3577 25.4119 14.5187 25.4119 15.9457ZM28 28.4943C27.4776 28.4943 27.0525 28.0692 27.0525 27.5468C27.0525 27.0243 27.4775 26.5992 28 26.5992C28.5225 26.5992 28.9474 27.0243 28.9474 27.5468C28.9474 28.0692 28.5224 28.4943 28 28.4943ZM28.9474 15.9457V24.0112C28.9474 24.5336 28.5224 24.9587 28 24.9587C27.4776 24.9587 27.0525 24.5337 27.0525 24.0112V15.9457C27.0525 15.4233 27.4775 14.9982 28 14.9982C28.5225 14.9982 28.9474 15.4233 28.9474 15.9457Z" fill="white"/>
<path d="M7.74482 4.18738H4.35638C3.90335 4.18738 3.53607 4.55466 3.53607 5.00769V36.3863C3.53607 36.8393 3.90335 37.2066 4.35638 37.2066H51.6436C52.0967 37.2066 52.4639 36.8393 52.4639 36.3863V5.00769C52.4639 4.55466 52.0967 4.18738 51.6436 4.18738H11.5729C11.1199 4.18738 10.7526 4.55466 10.7526 5.00769C10.7526 5.46072 11.1199 5.828 11.5729 5.828H50.8233V35.566H5.1767V5.828H7.74482C8.19785 5.828 8.56513 5.46072 8.56513 5.00769C8.56513 4.55466 8.19785 4.18738 7.74482 4.18738Z" fill="white"/>
<path d="M52.9703 0.651245H3.02969C1.35909 0.651245 0 2.01089 0 3.68203V37.7119C0 39.3825 1.35909 40.7416 3.02969 40.7416H20.6334L19.7848 46.172H17.8358C17.3828 46.172 17.0155 46.5393 17.0155 46.9923V50.5284C17.0155 50.9815 17.3828 51.3487 17.8358 51.3487H38.1642C38.6174 51.3487 38.9845 50.9815 38.9845 50.5284V46.9923C38.9845 46.5393 38.6174 46.172 38.1642 46.172H36.2153L35.3667 40.7416H43.8125C44.2656 40.7416 44.6328 40.3743 44.6328 39.9212C44.6328 39.4682 44.2656 39.1009 43.8125 39.1009H3.02969C2.26373 39.1009 1.64062 38.4778 1.64062 37.7119V3.68203C1.64062 2.91553 2.26373 2.29187 3.02969 2.29187H52.9703C53.7363 2.29187 54.3594 2.91553 54.3594 3.68203V37.7119C54.3594 38.4777 53.7363 39.1009 52.9703 39.1009H47.6405C47.1873 39.1009 46.8202 39.4682 46.8202 39.9212C46.8202 40.3743 47.1873 40.7416 47.6405 40.7416H52.9703C54.6409 40.7416 56 39.3825 56 37.7119V3.68203C56 2.01089 54.6409 0.651245 52.9703 0.651245ZM34.5546 46.172H33.1177C32.6645 46.172 32.2973 46.5393 32.2973 46.9923C32.2973 47.4454 32.6645 47.8127 33.1177 47.8127H37.3439V49.7081H18.6561V47.8127H29.2895C29.7427 47.8127 30.1098 47.4454 30.1098 46.9923C30.1098 46.5393 29.7427 46.172 29.2895 46.172H21.4454L22.2939 40.7416H33.7062L34.5546 46.172Z" fill="white"/>
<defs>
<linearGradient id="paint0_linear_9_1228" x1="6.22965" y1="11.9944" x2="8.83429" y2="4.42409" gradientUnits="userSpaceOnUse">
<stop stop-color="#6733FF"/>
<stop offset="0.0834" stop-color="#8E51BD"/>
<stop offset="0.1934" stop-color="#BD766D"/>
<stop offset="0.2839" stop-color="#DF9132"/>
<stop offset="0.3504" stop-color="#F5A20E"/>
<stop offset="0.3857" stop-color="#FDA800"/>
<stop offset="0.5292" stop-color="#FE7329"/>
<stop offset="0.6795" stop-color="#FE424F"/>
<stop offset="0.8118" stop-color="#FF1F6A"/>
<stop offset="0.9196" stop-color="#FF097B"/>
<stop offset="0.9894" stop-color="#FF0181"/>
</linearGradient>
<linearGradient id="paint1_linear_9_1228" x1="10.3762" y1="29.1356" x2="29.7598" y2="-0.722377" gradientUnits="userSpaceOnUse">
<stop stop-color="#6733FF"/>
<stop offset="0.0834" stop-color="#8E51BD"/>
<stop offset="0.1934" stop-color="#BD766D"/>
<stop offset="0.2839" stop-color="#DF9132"/>
<stop offset="0.3504" stop-color="#F5A20E"/>
<stop offset="0.3857" stop-color="#FDA800"/>
<stop offset="0.5292" stop-color="#FE7329"/>
<stop offset="0.6795" stop-color="#FE424F"/>
<stop offset="0.8118" stop-color="#FF1F6A"/>
<stop offset="0.9196" stop-color="#FF097B"/>
<stop offset="0.9894" stop-color="#FF0181"/>
</linearGradient>
</defs>
</svg>
