<svg width="56" height="56" viewBox="0 0 56 56" fill="none" xmlns="http://www.w3.org/2000/svg">
<path d="M28.0005 0C18.2877 0 10.3857 7.90147 10.3857 17.6137C10.3857 25.8235 16.0314 32.7391 23.6441 34.683V38.7172C23.6441 39.1702 24.0114 39.5375 24.4644 39.5375H24.97V41.4323H24.4643C24.0113 41.4323 23.644 41.7996 23.644 42.2527V55.1797C23.644 55.6327 24.0113 56 24.4643 56C24.9174 56 25.2846 55.6327 25.2846 55.1797V43.073H25.7881C25.7889 43.073 25.7895 43.0731 25.7902 43.0731C25.7908 43.0731 25.7916 43.073 25.7922 43.073H30.2075C30.2083 43.073 30.2089 43.0731 30.2096 43.0731C30.2102 43.0731 30.211 43.073 30.2116 43.073H30.715V45.4223C30.715 45.8754 31.0823 46.2427 31.5353 46.2427C31.9883 46.2427 32.3556 45.8754 32.3556 45.4223V42.2527C32.3556 41.7996 31.9883 41.4323 31.5353 41.4323H31.0299V39.5375H31.5354C31.9884 39.5375 32.3557 39.1702 32.3557 38.7172V34.6782C35.6996 33.8228 38.7584 31.9957 41.1055 29.3839C41.4084 29.0469 41.3806 28.5283 41.0437 28.2254C40.7067 27.9227 40.1881 27.9502 39.8852 28.2872C36.858 31.6559 32.5261 33.5879 28.0004 33.5879C19.1922 33.5879 12.0262 26.4218 12.0262 17.6136C12.0262 8.806 19.1922 1.64052 28.0004 1.64052C36.8081 1.64052 43.9735 8.806 43.9735 17.6136C43.9735 20.313 43.2884 22.9803 41.9922 25.3272C41.7731 25.7237 41.9171 26.2228 42.3137 26.4418C42.7102 26.661 43.2092 26.5169 43.4283 26.1204C44.8584 23.5314 45.6142 20.5897 45.6142 17.6136C45.6143 7.90147 37.7128 0 28.0005 0ZM29.3895 41.4323H26.6107V39.5375H29.3895V41.4323ZM30.7153 35.0165V37.8968H25.2849V35.019C26.1702 35.1566 27.0772 35.2285 28.0006 35.2285C28.9152 35.2286 29.8225 35.1563 30.7153 35.0165Z" fill="white"/>
<path d="M15.8472 12.2463C15.4222 12.0889 14.9504 12.3059 14.793 12.7309C14.2149 14.2927 13.9218 15.9355 13.9218 17.6138C13.9218 25.3768 20.2375 31.6925 28.0005 31.6925C35.7635 31.6925 42.0793 25.3768 42.0793 17.6138C42.0793 9.85133 35.7635 3.53613 28.0005 3.53613C23.5311 3.53613 19.4258 5.58823 16.7375 9.16621C16.4654 9.52846 16.5383 10.0426 16.9006 10.3148C17.2628 10.5868 17.777 10.5138 18.0491 10.1517C20.4246 6.98998 24.0518 5.17676 28.0005 5.17676C34.8589 5.17676 40.4386 10.756 40.4386 17.6138C40.4386 24.4721 34.8589 30.0519 28.0005 30.0519C21.142 30.0519 15.5624 24.4721 15.5624 17.6138C15.5624 16.1306 15.8212 14.6794 16.3317 13.3005C16.4889 12.8756 16.272 12.4036 15.8472 12.2463Z" fill="white"/>
<path d="M31.5355 48.4302C31.0825 48.4302 30.7152 48.7975 30.7152 49.2505V55.1797C30.7152 55.6327 31.0825 56 31.5355 56C31.9886 56 32.3558 55.6327 32.3558 55.1797V49.2505C32.3558 48.7975 31.9886 48.4302 31.5355 48.4302Z" fill="white"/>
<path d="M22.0338 22.0974C21.5808 22.0974 21.2135 22.4647 21.2135 22.9177C21.2135 23.3707 21.5808 23.738 22.0338 23.738H24.4459C25.3685 24.6264 26.6211 25.1743 28.0001 25.1743C29.3791 25.1743 30.6317 24.6264 31.5544 23.738H33.9664C34.4194 23.738 34.7867 23.3707 34.7867 22.9177C34.7867 22.4647 34.4194 22.0974 33.9664 22.0974H32.6995C32.9553 21.514 33.105 20.8744 33.1254 20.2025H33.9664C34.4194 20.2025 34.7867 19.8352 34.7867 19.3821C34.7867 18.9291 34.4194 18.5618 33.9664 18.5618H33.1254C33.105 17.8899 32.9553 17.2503 32.6996 16.6669H33.9664C34.4194 16.6669 34.7867 16.2996 34.7867 15.8466C34.7867 15.3936 34.4194 15.0263 33.9664 15.0263H31.5545C31.2939 14.7755 31.0075 14.5516 30.6988 14.3598V12.7529C30.6988 11.265 29.4883 10.0543 28.0002 10.0543C26.5122 10.0543 25.3016 11.2649 25.3016 12.7529V14.3598C24.993 14.5515 24.7065 14.7754 24.446 15.0263H22.034C21.581 15.0263 21.2137 15.3936 21.2137 15.8466C21.2137 16.2996 21.581 16.6669 22.034 16.6669H23.3008C23.045 17.2503 22.8954 17.8899 22.875 18.5618H22.034C21.581 18.5618 21.2137 18.9291 21.2137 19.3821C21.2137 19.8352 21.581 20.2025 22.034 20.2025H22.875C22.8955 20.8744 23.0451 21.514 23.3009 22.0974H22.0338ZM28 23.5337C26.0763 23.5337 24.5114 21.9686 24.5114 20.0451V18.7192C24.5114 16.7955 26.0764 15.2306 28 15.2306C29.9236 15.2306 31.4886 16.7956 31.4886 18.7192V20.0451C31.4887 21.9686 29.9237 23.5337 28 23.5337ZM26.9421 12.7529C26.9421 12.1696 27.4167 11.6949 28.0001 11.6949C28.5835 11.6949 29.0581 12.1695 29.0581 12.7529V13.7002C28.7165 13.6283 28.3628 13.59 28.0001 13.59C27.6374 13.59 27.2837 13.6284 26.9421 13.7002V12.7529Z" fill="url(#paint0_linear_9_1180)"/>
<defs>
<linearGradient id="paint0_linear_9_1180" x1="20.2276" y1="22.5318" x2="32.4491" y2="8.2837" gradientUnits="userSpaceOnUse">
<stop stop-color="#6733FF"/>
<stop offset="0.0834" stop-color="#8E51BD"/>
<stop offset="0.1934" stop-color="#BD766D"/>
<stop offset="0.2839" stop-color="#DF9132"/>
<stop offset="0.3504" stop-color="#F5A20E"/>
<stop offset="0.3857" stop-color="#FDA800"/>
<stop offset="0.5292" stop-color="#FE7329"/>
<stop offset="0.6795" stop-color="#FE424F"/>
<stop offset="0.8118" stop-color="#FF1F6A"/>
<stop offset="0.9196" stop-color="#FF097B"/>
<stop offset="0.9894" stop-color="#FF0181"/>
</linearGradient>
</defs>
</svg>
