<svg width="25" height="24" viewBox="0 0 25 24" fill="none" xmlns="http://www.w3.org/2000/svg">
<path d="M22.4375 12.7988L17.5625 9.98628C17.5055 9.95336 17.4408 9.93604 17.375 9.93604C17.3092 9.93604 17.2445 9.95336 17.1875 9.98628L12.3125 12.7988C12.2553 12.8318 12.2078 12.8794 12.1749 12.9367C12.1419 12.994 12.1247 13.0589 12.125 13.125V18.75C12.1251 18.8158 12.1424 18.8804 12.1753 18.9373C12.2082 18.9942 12.2556 19.0415 12.3125 19.0744L17.1875 21.8869C17.2445 21.9198 17.3092 21.9371 17.375 21.9371C17.4408 21.9371 17.5055 21.9198 17.5625 21.8869L22.4375 19.0744C22.4945 19.0415 22.5418 18.9942 22.5747 18.9373C22.6076 18.8804 22.6249 18.8158 22.625 18.75V13.125C22.6253 13.0589 22.6081 12.994 22.5751 12.9367C22.5422 12.8794 22.4947 12.8318 22.4375 12.7988ZM17.375 10.7363L21.5863 13.1738L17.375 15.5063L13.25 13.125L17.375 10.7363ZM12.875 13.7738L17 16.1532V20.9175L12.875 18.5363V13.7738ZM17.75 20.9175V16.1588L21.875 13.875V18.5344L17.75 20.9175Z" fill="url(#paint0_linear_9_928)"/>
<path d="M11 19.1717L8 20.8254V16.2598L11.1875 14.3848C11.2353 14.3632 11.2781 14.3318 11.313 14.2926C11.3479 14.2534 11.3742 14.2074 11.3902 14.1574C11.4062 14.1074 11.4115 14.0547 11.4059 14.0025C11.4002 13.9503 11.3836 13.9 11.3573 13.8546C11.3309 13.8092 11.2953 13.7699 11.2528 13.7392C11.2102 13.7084 11.1617 13.687 11.1104 13.6761C11.059 13.6653 11.006 13.6654 10.9547 13.6764C10.9034 13.6873 10.8549 13.7089 10.8125 13.7398L7.625 15.6148L3.41563 13.2298L7.625 10.841L10.8125 12.5192C10.9002 12.5627 11.0015 12.5701 11.0947 12.5399C11.1878 12.5098 11.2655 12.4443 11.3111 12.3576C11.3566 12.2709 11.3664 12.1699 11.3384 12.076C11.3105 11.9822 11.2469 11.903 11.1613 11.8554L7.78625 10.0817C7.73106 10.0515 7.66916 10.0356 7.60625 10.0356C7.54334 10.0356 7.48144 10.0515 7.42625 10.0817L2.5625 12.8492C2.50528 12.8822 2.4578 12.9298 2.42487 12.9871C2.39194 13.0444 2.37474 13.1093 2.375 13.1754V18.6992C2.37474 18.7652 2.39194 18.8302 2.42487 18.8875C2.4578 18.9448 2.50528 18.9924 2.5625 19.0254L7.4375 21.7873C7.49451 21.8202 7.55918 21.8375 7.625 21.8375C7.69083 21.8375 7.7555 21.8202 7.8125 21.7873L11.375 19.826C11.4214 19.8043 11.4628 19.7732 11.4967 19.7349C11.5307 19.6965 11.5564 19.6515 11.5723 19.6028C11.5881 19.5541 11.5939 19.5026 11.5891 19.4516C11.5843 19.4006 11.5692 19.3511 11.5445 19.3062C11.5199 19.2613 11.4863 19.2219 11.4458 19.1904C11.4054 19.159 11.3589 19.1362 11.3093 19.1234C11.2597 19.1106 11.2079 19.1081 11.1573 19.1161C11.1067 19.1241 11.0583 19.1424 11.015 19.1698L11 19.1717ZM3.125 13.9217L7.25 16.2635V20.8123L3.125 18.4798V13.9217Z" fill="white"/>
<path d="M7.625 9.1876C7.72446 9.1876 7.81984 9.1481 7.89017 9.07777C7.96049 9.00744 8 8.91206 8 8.8126V5.33635L12.125 7.71573V11.4376C12.125 11.5371 12.1645 11.6324 12.2348 11.7028C12.3052 11.7731 12.4005 11.8126 12.5 11.8126C12.5995 11.8126 12.6948 11.7731 12.7652 11.7028C12.8355 11.6324 12.875 11.5371 12.875 11.4376V7.71573L17 5.33635V8.8126C17 8.91206 17.0395 9.00744 17.1098 9.07777C17.1802 9.1481 17.2755 9.1876 17.375 9.1876C17.4745 9.1876 17.5698 9.1481 17.6402 9.07777C17.7105 9.00744 17.75 8.91206 17.75 8.8126V4.6876C17.7499 4.62184 17.7326 4.55726 17.6997 4.50032C17.6668 4.44339 17.6195 4.39611 17.5625 4.36323L12.6875 1.55073C12.6305 1.51782 12.5658 1.50049 12.5 1.50049C12.4342 1.50049 12.3695 1.51782 12.3125 1.55073L7.4375 4.36323C7.38055 4.39611 7.33325 4.44339 7.30034 4.50032C7.26743 4.55726 7.25007 4.62184 7.25 4.6876V8.8126C7.25 8.91206 7.28951 9.00744 7.35983 9.07777C7.43016 9.1481 7.52554 9.1876 7.625 9.1876ZM12.5 2.30823L16.625 4.6876L12.5 7.06698L8.375 4.6876L12.5 2.30823Z" fill="white"/>
<defs>
<linearGradient id="paint0_linear_9_928" x1="11.3623" y1="19.8397" x2="21.0977" y2="8.778" gradientUnits="userSpaceOnUse">
<stop stop-color="#6733FF"/>
<stop offset="0.0834" stop-color="#8E51BD"/>
<stop offset="0.1934" stop-color="#BD766D"/>
<stop offset="0.2839" stop-color="#DF9132"/>
<stop offset="0.3504" stop-color="#F5A20E"/>
<stop offset="0.3857" stop-color="#FDA800"/>
<stop offset="0.5292" stop-color="#FE7329"/>
<stop offset="0.6795" stop-color="#FE424F"/>
<stop offset="0.8118" stop-color="#FF1F6A"/>
<stop offset="0.9196" stop-color="#FF097B"/>
<stop offset="0.9894" stop-color="#FF0181"/>
</linearGradient>
</defs>
</svg>
