<svg width="48" height="48" viewBox="0 0 48 48" fill="none" xmlns="http://www.w3.org/2000/svg">
<path d="M38.6002 2.2C40.6002 4.4 41.8002 6.8 41.8002 10.8C41.8002 17.8 36.8002 24 29.8002 27.2L28.0002 24.6C34.6002 21 36.0002 16.4 36.4002 13.4C35.4002 14 34.0002 14.2 32.6002 14C29.0002 13.6 26.2002 10.8 26.2002 7C26.2002 5.2 27.0002 3.4 28.2002 2C29.6002 0.6 31.2002 0 33.2002 0C35.4002 0 37.4002 1 38.6002 2.2ZM18.6002 2.2C20.6002 4.4 21.8002 6.8 21.8002 10.8C21.8002 17.8 16.8002 24 9.8002 27.2L8.0002 24.6C14.6002 21 16.0002 16.4 16.4002 13.4C15.4002 14 14.0002 14.2 12.6002 14C9.0002 13.6 6.2002 10.6 6.2002 7C6.2002 5.2 7.0002 3.4 8.2002 2C9.6002 0.6 11.2002 0 13.2002 0C15.4002 0 17.4002 1 18.6002 2.2Z" fill="#FF0181"/>
</svg>
