<svg width="24" height="24" viewBox="0 0 24 24" fill="none" xmlns="http://www.w3.org/2000/svg">
<g clip-path="url(#clip0_9_1472)">
<path d="M19.4996 2H4.49963C3.12088 2 1.99963 3.12125 1.99963 4.5V19.5C1.99963 20.8788 3.12088 22 4.49963 22H19.4996C20.8784 22 21.9996 20.8788 21.9996 19.5V4.5C21.9996 3.12125 20.8784 2 19.4996 2Z" fill="#1976D2"/>
<path d="M18.9996 12.1538H15.9996V9.69231C15.9996 9.01292 16.5372 9.07692 17.1996 9.07692H18.3996V6H15.9996C14.0112 6 12.3996 7.65292 12.3996 9.69231V12.1538H9.99963V15.2308H12.3996V22H15.9996V15.2308H17.7996L18.9996 12.1538Z" fill="#FAFAFA"/>
</g>
<defs>
<clipPath id="clip0_9_1472">
<rect width="24" height="24" fill="white" transform="translate(-0.000366211)"/>
</clipPath>
</defs>
</svg>
