<svg width="24" height="24" viewBox="0 0 24 24" fill="none" xmlns="http://www.w3.org/2000/svg">
<g clip-path="url(#clip0_9_501)">
<path d="M10.4685 4.82849L9.84786 6.73912C9.79761 6.89362 9.85274 7.06274 9.98399 7.15837C10.1152 7.25399 10.2934 7.25399 10.425 7.15837L12.0499 5.97749L13.6751 7.15837C13.8067 7.25399 13.9845 7.25399 14.1161 7.15837C14.2477 7.06274 14.3025 6.89362 14.2522 6.73912L13.6316 4.82849L15.2565 3.64799C15.3881 3.55237 15.4429 3.38324 15.3926 3.22874C15.3424 3.07424 15.1984 2.96962 15.036 2.96962H13.0271L12.4065 1.05899C12.3562 0.904491 12.2122 0.799866 12.0499 0.799866C11.8875 0.799866 11.7435 0.904491 11.6932 1.05899L11.0726 2.96962H9.06374C8.90136 2.96962 8.75736 3.07424 8.70711 3.22874C8.65686 3.38324 8.71199 3.55237 8.84324 3.64799L10.4685 4.82849ZM11.3452 3.71924C11.5076 3.71924 11.6516 3.61462 11.7019 3.46012L12.0499 2.38837L12.3982 3.46012C12.4485 3.61462 12.5925 3.71924 12.7549 3.71924H13.8821L12.9701 4.38187C12.8385 4.47749 12.7837 4.64662 12.834 4.80112L13.1824 5.87324L12.2704 5.21062C12.2047 5.16299 12.1271 5.13899 12.0499 5.13899C11.9726 5.13899 11.895 5.16262 11.8294 5.21062L10.9177 5.87324L11.2661 4.80149C11.3164 4.64699 11.2612 4.47787 11.13 4.38224L10.218 3.71962L11.3452 3.71924Z" fill="url(#paint0_linear_9_501)"/>
<path d="M2.6295 4.82849L2.00887 6.73912C1.95862 6.89362 2.01375 7.06274 2.145 7.15837C2.27662 7.25399 2.45437 7.25399 2.586 7.15837L4.21125 5.97749L5.83612 7.15837C5.96775 7.25399 6.1455 7.25399 6.27712 7.15837C6.40875 7.06274 6.4635 6.89362 6.41325 6.73912L5.79262 4.82849L7.41787 3.64799C7.5495 3.55237 7.60425 3.38324 7.554 3.22874C7.50375 3.07424 7.35975 2.96962 7.19737 2.96962H5.1885L4.56787 1.05899C4.51762 0.904491 4.37362 0.799866 4.21125 0.799866C4.04887 0.799866 3.90487 0.904491 3.85462 1.05899L3.234 2.96962H1.22475C1.06237 2.96962 0.918371 3.07424 0.868121 3.22874C0.817871 3.38324 0.872996 3.55237 1.00425 3.64799L2.6295 4.82849ZM3.50625 3.71924C3.66862 3.71924 3.81262 3.61462 3.86287 3.46012L4.21125 2.38799L4.55962 3.46012C4.60987 3.61462 4.75387 3.71924 4.91625 3.71924H6.0435L5.1315 4.38187C4.99987 4.47749 4.94512 4.64662 4.99537 4.80112L5.34375 5.87287L4.43212 5.21024C4.3005 5.11462 4.12275 5.11462 3.99112 5.21024L3.07912 5.87287L3.4275 4.80074C3.47775 4.64624 3.42262 4.47712 3.29137 4.38149L2.37937 3.71887H3.50662L3.50625 3.71924Z" fill="url(#paint1_linear_9_501)"/>
<path d="M18.3071 4.82849L17.6865 6.73912C17.6363 6.89362 17.6914 7.06274 17.8226 7.15837C17.9539 7.25399 18.132 7.25399 18.2636 7.15837L19.8885 5.97749L21.5138 7.15837C21.6454 7.25399 21.8231 7.25399 21.9548 7.15837C22.0864 7.06274 22.1411 6.89362 22.0909 6.73912L21.4703 4.82849L23.0951 3.64799C23.2268 3.55237 23.2815 3.38324 23.2313 3.22874C23.181 3.07424 23.037 2.96962 22.8746 2.96962H20.8658L20.2451 1.05899C20.1949 0.904491 20.0509 0.799866 19.8885 0.799866C19.7261 0.799866 19.5821 0.904491 19.5319 1.05899L18.9113 2.96962H16.9024C16.74 2.96962 16.596 3.07424 16.5458 3.22874C16.4955 3.38324 16.5506 3.55237 16.6819 3.64799L18.3071 4.82849ZM19.1835 3.71924C19.3459 3.71924 19.4899 3.61462 19.5401 3.46012L19.8885 2.38799L20.2369 3.46012C20.2871 3.61462 20.4311 3.71924 20.5935 3.71924H21.7208L20.8088 4.38187C20.6771 4.47749 20.6224 4.64662 20.6726 4.80112L21.021 5.87324L20.109 5.21062C20.0434 5.16299 19.9658 5.13899 19.8885 5.13899C19.8113 5.13899 19.7336 5.16262 19.668 5.21062L18.7564 5.87324L19.1048 4.80149C19.155 4.64699 19.0999 4.47787 18.9686 4.38224L18.0566 3.71962H19.1839L19.1835 3.71924Z" fill="url(#paint2_linear_9_501)"/>
<path d="M22.1284 14.238H16.5307V11.6415C16.5307 11.0231 16.0275 10.5199 15.4091 10.5199H8.69025C8.07187 10.5199 7.56862 11.0231 7.56862 11.6415V14.238H1.87162C1.25325 14.238 0.75 14.7413 0.75 15.3596V19.839C0.75 20.4574 1.25325 20.9606 1.87162 20.9606H3.87937L4.89562 22.9931C4.959 23.1203 5.08912 23.2005 5.23125 23.2005C5.37337 23.2005 5.50312 23.1203 5.56687 22.9931L6.58275 20.9606H8.5905C9.20887 20.9606 9.71212 20.4574 9.71212 19.839V17.2425H10.6984L11.7142 19.2746C11.7776 19.4018 11.9077 19.482 12.0499 19.482C12.192 19.482 12.3217 19.4018 12.3855 19.2746L13.4017 17.2425H14.2882V19.839C14.2882 20.4574 14.7915 20.9606 15.4099 20.9606H17.4176L18.4335 22.9931C18.4969 23.1203 18.627 23.2005 18.7691 23.2005C18.9112 23.2005 19.041 23.1203 19.1047 22.9931L20.121 20.9606H22.1287C22.7471 20.9606 23.2504 20.4574 23.2504 19.839V15.3596C23.2504 14.7413 22.7467 14.238 22.1284 14.238ZM8.96212 19.839C8.96212 20.0438 8.79562 20.2106 8.5905 20.2106H6.35062C6.2085 20.2106 6.07875 20.2909 6.015 20.418L5.23088 21.987L4.44637 20.418C4.383 20.2909 4.25287 20.2106 4.11075 20.2106H1.87162C1.66687 20.2106 1.5 20.0441 1.5 19.839V15.3596C1.5 15.1549 1.6665 14.988 1.87162 14.988H7.569V16.1209C7.569 16.7393 8.07225 17.2425 8.69062 17.2425H8.9625L8.96212 19.839ZM13.1696 16.4925C13.0275 16.4925 12.8977 16.5728 12.834 16.6999L12.0495 18.2689L11.2654 16.6999C11.202 16.5728 11.0719 16.4925 10.9297 16.4925H8.68987C8.48512 16.4925 8.31825 16.3256 8.31825 16.1209V11.6415C8.31825 11.4368 8.48475 11.2699 8.68987 11.2699H15.4087C15.6135 11.2699 15.7804 11.4364 15.7804 11.6415V16.1209C15.7804 16.3256 15.6139 16.4925 15.4087 16.4925H13.1696ZM22.5 19.839C22.5 20.0438 22.3335 20.2106 22.1284 20.2106H19.8885C19.7464 20.2106 19.6166 20.2909 19.5529 20.418L18.7684 21.987L17.9842 20.418C17.9209 20.2909 17.7907 20.2106 17.6486 20.2106H15.4087C15.204 20.2106 15.0371 20.0441 15.0371 19.839V17.2425H15.4087C16.0271 17.2425 16.5304 16.7393 16.5304 16.1209V14.988H22.128C22.3327 14.988 22.4996 15.1545 22.4996 15.3596L22.5 19.839Z" fill="#251B59"/>
</g>
<defs>
<linearGradient id="paint0_linear_9_501" x1="8.20043" y1="6.10628" x2="13.2227" y2="-0.712269" gradientUnits="userSpaceOnUse">
<stop stop-color="#6733FF"/>
<stop offset="0.0834" stop-color="#8E51BD"/>
<stop offset="0.1934" stop-color="#BD766D"/>
<stop offset="0.2839" stop-color="#DF9132"/>
<stop offset="0.3504" stop-color="#F5A20E"/>
<stop offset="0.3857" stop-color="#FDA800"/>
<stop offset="0.5292" stop-color="#FE7329"/>
<stop offset="0.6795" stop-color="#FE424F"/>
<stop offset="0.8118" stop-color="#FF1F6A"/>
<stop offset="0.9196" stop-color="#FF097B"/>
<stop offset="0.9894" stop-color="#FF0181"/>
</linearGradient>
<linearGradient id="paint1_linear_9_501" x1="0.361416" y1="6.10628" x2="5.38356" y2="-0.712536" gradientUnits="userSpaceOnUse">
<stop stop-color="#6733FF"/>
<stop offset="0.0834" stop-color="#8E51BD"/>
<stop offset="0.1934" stop-color="#BD766D"/>
<stop offset="0.2839" stop-color="#DF9132"/>
<stop offset="0.3504" stop-color="#F5A20E"/>
<stop offset="0.3857" stop-color="#FDA800"/>
<stop offset="0.5292" stop-color="#FE7329"/>
<stop offset="0.6795" stop-color="#FE424F"/>
<stop offset="0.8118" stop-color="#FF1F6A"/>
<stop offset="0.9196" stop-color="#FF097B"/>
<stop offset="0.9894" stop-color="#FF0181"/>
</linearGradient>
<linearGradient id="paint2_linear_9_501" x1="16.0391" y1="6.10628" x2="21.0613" y2="-0.712268" gradientUnits="userSpaceOnUse">
<stop stop-color="#6733FF"/>
<stop offset="0.0834" stop-color="#8E51BD"/>
<stop offset="0.1934" stop-color="#BD766D"/>
<stop offset="0.2839" stop-color="#DF9132"/>
<stop offset="0.3504" stop-color="#F5A20E"/>
<stop offset="0.3857" stop-color="#FDA800"/>
<stop offset="0.5292" stop-color="#FE7329"/>
<stop offset="0.6795" stop-color="#FE424F"/>
<stop offset="0.8118" stop-color="#FF1F6A"/>
<stop offset="0.9196" stop-color="#FF097B"/>
<stop offset="0.9894" stop-color="#FF0181"/>
</linearGradient>
<clipPath id="clip0_9_501">
<rect width="24" height="24" fill="white"/>
</clipPath>
</defs>
</svg>
