<svg width="40" height="40" viewBox="0 0 40 40" fill="none" xmlns="http://www.w3.org/2000/svg">
<rect width="30" height="30" transform="translate(5 5)" fill="#251B59"/>
<rect x="0.5" y="0.5" width="39" height="39" rx="3.5" fill="#251B59" stroke="url(#paint0_linear_67_3228)"/>
<path d="M22.6587 27.8057C22.6587 28.0799 22.5585 28.333 22.3845 28.5229H13.061C12.444 27.8584 12.9556 26.6982 13.8731 26.7193H21.5724C22.1735 26.7193 22.6587 27.2045 22.6587 27.8057ZM13.061 29.2559C12.444 29.9203 12.9556 31.0805 13.8731 31.0594H21.5724C22.4899 31.0805 23.0015 29.915 22.3792 29.2559H13.061ZM16.1249 32.9473H19.3259C20.0114 32.9473 20.5757 32.4463 20.6864 31.7924H14.7643C14.8751 32.4463 15.4394 32.9473 16.1249 32.9473ZM23.0489 22.1473C21.9204 23.1281 21.2296 24.5098 21.0872 25.9863H18.7511V11.2207C18.7511 10.9096 19.0147 10.6617 19.3259 10.6881C25.095 11.1996 27.3468 18.44 23.0489 22.1473ZM24.072 17.2113C24.0878 14.9965 22.6323 12.9187 20.5335 12.1963C20.3173 12.1172 20.0694 12.2332 19.9956 12.4547C19.9165 12.6762 20.0272 12.9135 20.2487 12.9926C22.0101 13.599 23.2388 15.3445 23.2229 17.2113C23.2335 17.765 24.0667 17.765 24.072 17.2113ZM13.3405 23.4762C13.6147 23.1914 14.237 22.8223 14.469 23.3443C14.5534 23.5605 14.4427 23.8084 14.2212 23.8928C13.272 24.3252 13.7624 25.6066 14.353 25.9863H16.2462C16.6522 25.691 16.9159 25.2164 16.9159 24.6785V12.7236C16.9054 10.9992 14.5429 10.493 13.8362 12.0592C14.4058 12.1699 16.088 13.6043 14.8804 13.8732C14.4796 13.8574 14.3899 13.3248 14.0735 13.1455C12.4862 11.8904 10.2292 13.6096 10.9147 15.4395C11.6319 15.3076 12.5759 15.6609 13.0558 16.2674C13.2931 16.5258 13.0768 16.974 12.7341 16.9635C12.6128 16.9635 12.4968 16.9107 12.4124 16.8105C12.3017 16.6787 12.0538 16.4361 11.6636 16.3254C11.3894 16.2357 11.0097 16.2568 10.7882 16.3307C8.5997 16.9688 8.4204 20.0801 10.5087 20.9713C10.7935 20.5125 12.4599 19.2416 12.7604 20.1328C12.8185 20.3596 12.6761 20.5916 12.4546 20.6443C10.0499 21.2402 10.3821 24.6152 12.8606 24.6838C12.8659 24.2725 12.9977 23.8189 13.3405 23.4762ZM24.4306 12.017C24.5413 12.017 24.6468 11.9748 24.7311 11.8957L26.6876 9.93926C27.0726 9.53848 26.4872 8.95312 26.0917 9.34336L24.1352 11.2998C23.861 11.5477 24.0667 12.0275 24.4306 12.017ZM29.5458 16.8475H26.7825C26.2235 16.858 26.2288 17.6859 26.7825 17.6912H29.5458C30.1048 17.6859 30.0995 16.858 29.5458 16.8475ZM24.7259 22.6535C24.3251 22.2686 23.7397 22.8539 24.13 23.2494L26.0864 25.2059C26.4819 25.5961 27.0726 25.0002 26.6823 24.61C26.6823 24.6047 24.7259 22.6535 24.7259 22.6535ZM18.7511 9.66504C18.9831 9.66504 19.1729 9.4752 19.1729 9.24316V6.47461C19.1729 6.24258 18.9831 6.05273 18.7511 6.05273C18.519 6.05273 18.3292 6.24258 18.3292 6.47461V9.23789C18.3292 9.4752 18.519 9.66504 18.7511 9.66504Z" fill="white"/>
<defs>
<linearGradient id="paint0_linear_67_3228" x1="-2.90547" y1="33.0092" x2="28.7216" y2="-8.06413" gradientUnits="userSpaceOnUse">
<stop stop-color="#6733FF"/>
<stop offset="0.0834" stop-color="#8E51BD"/>
<stop offset="0.1934" stop-color="#BD766D"/>
<stop offset="0.2839" stop-color="#DF9132"/>
<stop offset="0.3504" stop-color="#F5A20E"/>
<stop offset="0.3857" stop-color="#FDA800"/>
<stop offset="0.5292" stop-color="#FE7329"/>
<stop offset="0.6795" stop-color="#FE424F"/>
<stop offset="0.8118" stop-color="#FF1F6A"/>
<stop offset="0.9196" stop-color="#FF097B"/>
<stop offset="0.9894" stop-color="#FF0181"/>
</linearGradient>
</defs>
</svg>
