<svg width="24" height="24" viewBox="0 0 24 24" fill="none" xmlns="http://www.w3.org/2000/svg">
<g clip-path="url(#clip0_9_1483)">
<path d="M19.2724 2H4.72691C3.22068 2 1.99963 3.22104 1.99963 4.72727V19.2727C1.99963 20.779 3.22068 22 4.72691 22H19.2724C20.7786 22 21.9996 20.779 21.9996 19.2727V4.72727C21.9996 3.22104 20.7786 2 19.2724 2Z" fill="#0077B5"/>
<path d="M9.20365 7.45455C9.20365 7.79167 9.10368 8.12123 8.91638 8.40154C8.72908 8.68185 8.46287 8.90033 8.1514 9.02934C7.83994 9.15835 7.49721 9.19211 7.16656 9.12634C6.83591 9.06057 6.53219 8.89823 6.29381 8.65984C6.05542 8.42146 5.89308 8.11773 5.82731 7.78709C5.76154 7.45644 5.79529 7.11371 5.92431 6.80224C6.05332 6.49078 6.2718 6.22457 6.55211 6.03727C6.83242 5.84997 7.16197 5.75 7.4991 5.75C7.95118 5.75 8.38473 5.92959 8.7044 6.24925C9.02406 6.56891 9.20365 7.00247 9.20365 7.45455Z" fill="white"/>
<path d="M8.8173 10.2953V17.826C8.8176 17.8815 8.80692 17.9366 8.78587 17.988C8.76481 18.0394 8.73381 18.0862 8.69463 18.1255C8.65545 18.1649 8.60887 18.1962 8.55757 18.2175C8.50628 18.2389 8.45127 18.2498 8.39571 18.2498H6.59912C6.54357 18.25 6.48853 18.2391 6.43717 18.218C6.38582 18.1968 6.33916 18.1656 6.29987 18.1264C6.26059 18.0871 6.22946 18.0404 6.20827 17.9891C6.18708 17.9377 6.17624 17.8827 6.17639 17.8271V10.2953C6.17639 10.1832 6.22093 10.0756 6.30021 9.99637C6.37948 9.9171 6.48701 9.87256 6.59912 9.87256H8.39571C8.50763 9.87286 8.61486 9.91753 8.69389 9.99677C8.77292 10.076 8.8173 10.1834 8.8173 10.2953Z" fill="white"/>
<path d="M18.2081 14.2153V17.8607C18.2082 17.9118 18.1983 17.9624 18.1788 18.0096C18.1593 18.0568 18.1307 18.0997 18.0946 18.1358C18.0585 18.172 18.0156 18.2006 17.9684 18.2201C17.9211 18.2395 17.8705 18.2495 17.8195 18.2493H15.8876C15.8366 18.2495 15.786 18.2395 15.7387 18.2201C15.6915 18.2006 15.6486 18.172 15.6125 18.1358C15.5764 18.0997 15.5478 18.0568 15.5283 18.0096C15.5088 17.9624 15.4989 17.9118 15.499 17.8607V14.3278C15.499 13.8005 15.6536 12.0187 14.1206 12.0187C12.9331 12.0187 12.6911 13.238 12.6433 13.7857V17.8607C12.6433 17.9628 12.6032 18.0608 12.5315 18.1335C12.4599 18.2062 12.3625 18.2479 12.2604 18.2493H10.3945C10.3435 18.2493 10.293 18.2393 10.2459 18.2197C10.1988 18.2002 10.1561 18.1715 10.1201 18.1354C10.0841 18.0993 10.0555 18.0565 10.0361 18.0093C10.0167 17.9622 10.0068 17.9117 10.007 17.8607V10.2618C10.0068 10.2109 10.0167 10.1603 10.0361 10.1132C10.0555 10.0661 10.0841 10.0232 10.1201 9.9871C10.1561 9.951 10.1988 9.92236 10.2459 9.90281C10.293 9.88327 10.3435 9.87321 10.3945 9.87321H12.2604C12.3634 9.87321 12.4623 9.91415 12.5352 9.98704C12.6081 10.0599 12.649 10.1588 12.649 10.2618V10.9187C13.0899 10.2573 13.7433 9.74707 15.1376 9.74707C18.2263 9.74707 18.2081 12.6312 18.2081 14.2153Z" fill="white"/>
</g>
<defs>
<clipPath id="clip0_9_1483">
<rect width="24" height="24" fill="white" transform="translate(-0.000366211)"/>
</clipPath>
</defs>
</svg>
