<svg width="107" height="24" viewBox="0 0 107 24" fill="none" xmlns="http://www.w3.org/2000/svg">
<path d="M22.1805 23.4937L18.3839 23.42L13.7631 11.2036L10.7878 3.34496L11.2701 3.35968C11.2146 3.20363 11.1503 3.02991 11.0772 2.8503L10.101 0.521256C10.4488 0.347535 10.7645 0.447646 11.3695 0.447646C11.9832 0.447646 12.3982 0.415257 12.784 0.447646C13.2195 0.482979 13.503 0.465312 13.7281 0.959976L14.3214 2.5058L22.1805 23.4937Z" fill="white"/>
<path d="M11.159 22.731C8.09021 22.731 5.21721 21.2117 3.47529 18.6648L3.36423 18.5028L5.79298 16.8157L5.88066 16.9924C7.09065 18.7708 9.05762 19.7866 11.1561 19.7866C14.675 19.7866 17.5568 16.9865 17.5393 13.3295C17.5246 10.2879 15.3969 7.64086 12.445 7.03137L12.255 6.99309L12.8454 4.08105L13.0354 4.11933C17.3551 5.00855 20.4883 8.88341 20.4883 13.3295C20.4912 18.5146 16.3059 22.731 11.159 22.731Z" fill="url(#paint0_linear_9_1101)"/>
<path d="M3.48407 18.6678C2.46697 17.1014 1.85321 15.2906 1.85321 13.3737C1.85321 8.18861 6.01512 3.96631 11.159 3.96631C11.7903 3.96631 12.4246 4.03109 13.0383 4.1577L13.2283 4.19597L12.6672 7.09034L12.4479 7.04618C12.0271 6.96079 11.5916 6.91957 11.1561 6.91957C7.63721 6.91957 4.77882 9.82277 4.77882 13.3679C4.77882 14.6781 5.16754 15.9413 5.90405 17.013L6.01219 17.172L3.6039 18.8445L3.48407 18.6678Z" fill="url(#paint1_linear_9_1101)"/>
<path d="M10.9989 2.65885C10.99 2.64118 10.9812 2.62352 10.9723 2.60585C10.9605 2.57935 10.9487 2.55285 10.9398 2.5293C10.9576 2.57052 10.9782 2.61469 10.9989 2.65885Z" fill="#0E042D"/>
<path d="M11.3665 3.64528L11.2876 3.43328L11.1006 2.93568C11.1006 2.93568 11.0714 2.85029 11.0217 2.71484C11.1678 3.06817 11.2847 3.40089 11.3665 3.64528Z" fill="#0E042D"/>
<path d="M14.3214 2.50865L13.7836 1.12771C13.7778 1.11299 13.3365 0.0176665 13.3365 0.0176665L9.49896 0L7.57584 4.68458C7.57584 4.68458 8.95827 4.0898 10.3465 4.00442C10.9808 3.96614 11.4864 3.96319 11.4864 3.96319V3.96614L14.2483 11.2801L14.2629 11.2771L17.4048 10.8826L14.3214 2.50865Z" fill="white"/>
<path d="M16.4199 17.0365C16.8846 16.3445 18.2553 14.4542 17.5568 11.183C17.3697 10.4027 14.4704 2.91797 14.4704 2.91797C13.5089 5.31179 14.5026 11.9632 14.564 11.9544L16.4199 17.0365Z" fill="white"/>
<path d="M19.7517 17.0127C19.3776 17.8577 18.9392 18.747 17.6182 20.1191C17.9455 20.9553 18.8486 23.4257 18.8486 23.4257C19.8102 21.0318 21.3154 20.9818 21.2511 20.9906L19.7517 17.0127Z" fill="white"/>
<path d="M4.74667 20.1634L5.94205 17.0776C5.94205 17.0776 6.5412 18.0611 7.87979 18.8914C7.65767 19.5038 6.9913 21.6768 6.9913 21.6768C5.64686 21.1115 4.74667 20.1634 4.74667 20.1634Z" fill="url(#paint2_linear_9_1101)"/>
<path d="M12.6145 7.03697L11.4834 3.97182C11.4834 3.97182 10.0279 3.89527 8.99332 4.33987C9.33819 5.3027 9.83505 7.06052 9.83505 7.06052C11.9014 6.67186 12.6145 7.03697 12.6145 7.03697Z" fill="url(#paint3_linear_9_1101)"/>
<path d="M2.79138 17.3929L3.99552 14.2012L4.47777 12.9822C2.87321 12.62 2.02271 11.9575 2.02271 11.9575C1.52293 15.0286 2.79138 17.3929 2.79138 17.3929Z" fill="url(#paint4_linear_9_1101)"/>
<path d="M15.2274 4.86133L16.4549 8.07075L17.4107 10.6177C18.9597 9.57535 19.3747 8.69791 19.3747 8.69791C17.5685 5.86832 15.2274 4.86133 15.2274 4.86133Z" fill="url(#paint5_linear_9_1101)"/>
<path d="M0.5 23.4523H4.26442L10.6885 6.93701C10.6885 6.93701 8.92026 6.96057 7.2631 8.25906C6.01219 9.23955 5.38381 10.6175 5.38381 10.6175L0.5 23.4523Z" fill="white"/>
<path d="M28.7624 23.8736C27.5173 23.8736 26.5031 23.5085 25.752 22.793C25.0038 22.0775 24.6239 20.9321 24.6239 19.3863V11.3509H22.2331V8.66563H24.6385V5.03516H27.9236V8.66858H30.8726V11.3539H27.9206V18.7797C27.9206 19.5276 28.0668 20.0429 28.3649 20.355C28.663 20.6671 29.0926 20.8232 29.648 20.8232C29.8935 20.8232 30.1419 20.7937 30.3874 20.7378C30.5511 20.6995 30.7147 20.6553 30.8755 20.6023L31.4191 23.3701C31.0976 23.4938 30.6534 23.6498 30.1097 23.7646C29.7795 23.8382 29.3235 23.8736 28.7624 23.8736Z" fill="white"/>
<path d="M38.3049 23.8736C37.0599 23.8736 36.0457 23.5085 35.2946 22.793C34.5464 22.0775 34.1664 20.9321 34.1664 19.3863V11.3509H31.7757V8.66563H34.181V5.03516H37.4661V8.66858H40.4151V11.3539H37.4661V18.7797C37.4661 19.5276 37.6123 20.0429 37.9104 20.355C38.2085 20.6671 38.6381 20.8232 39.1934 20.8232C39.4389 20.8232 39.6874 20.7937 39.9329 20.7378C40.0966 20.6995 40.2602 20.6553 40.421 20.6023L40.9646 23.3701C40.6431 23.4938 40.1959 23.6498 39.6552 23.7646C39.322 23.8382 38.869 23.8736 38.3049 23.8736Z" fill="white"/>
<path d="M46.5323 23.8557C45.1002 23.8557 43.8756 23.4582 42.8936 22.6691C41.9174 21.8888 41.4235 20.714 41.4235 19.18C41.4235 17.5635 42.0548 16.3239 43.2969 15.4935C44.5507 14.6573 46.1553 14.2304 48.0667 14.2304H51.2291V13.2234C51.2291 12.4578 51.0274 11.8189 50.6299 11.3301C50.2295 10.8355 49.5193 10.5852 48.5256 10.5852C47.5348 10.5852 46.8187 10.7913 46.3979 11.2006C45.977 11.6099 45.7636 12.0986 45.7636 12.661V12.7493H42.2535V12.661C42.2535 11.389 42.8439 10.2996 44.01 9.42509C45.182 8.54765 46.7486 8.1001 48.6688 8.1001C50.5861 8.1001 52.103 8.52704 53.1756 9.37209C54.2424 10.2112 54.7831 11.5127 54.7831 13.2352V20.2135C54.7831 20.8406 54.8357 21.4413 54.9409 21.9948C55.0461 22.5513 55.1922 23.0401 55.3764 23.4494L55.3734 23.5613H51.8691C51.7581 23.3434 51.6587 23.0637 51.571 22.7309C51.4775 22.3717 51.4161 22.0125 51.3869 21.6651L51.3635 21.5267L51.2291 21.7799C50.8228 22.3599 50.3873 22.7663 49.5924 23.2168C48.7916 23.6732 47.7511 23.8557 46.5323 23.8557ZM48.549 16.6419C47.3711 16.6419 46.4768 16.8568 45.8893 17.2779C45.2668 17.7254 44.9891 18.1347 44.9891 18.8826C44.9891 19.6334 45.2113 20.078 45.6467 20.5285C46.0822 20.982 46.7661 21.1881 47.6926 21.1881C48.6542 21.1881 49.493 20.8642 50.1828 20.2282C50.8754 19.5892 51.2262 18.8443 51.2262 18.0169V16.6448H48.549V16.6419Z" fill="white"/>
<path d="M66.2751 23.5674L63.1069 18.3263L59.6727 23.5674H55.9697L61.2013 15.8412L56.3408 8.54199H60.3742L63.3465 13.2354L66.2634 8.54199H69.943L65.22 15.7588L70.3084 23.5674H66.2751Z" fill="white"/>
<path d="M75.236 8.54199H71.6703V23.5703H75.236V8.54199Z" fill="white"/>
<path d="M73.4473 6.86067C72.7692 6.86067 72.2402 6.66928 71.8749 6.28945C71.5096 5.90962 71.3254 5.43262 71.3254 4.87024C71.3254 4.3108 71.5096 3.8338 71.8749 3.45986C72.2373 3.08592 72.7722 2.89453 73.4619 2.89453C74.1517 2.89453 74.6836 3.08592 75.0489 3.45986C75.4143 3.83675 75.5984 4.3108 75.5984 4.87024C75.5984 5.42968 75.4114 5.90962 75.0431 6.28945C74.6719 6.66634 74.1371 6.86067 73.4473 6.86067Z" fill="white"/>
<path d="M84.4425 24C82.2241 24 80.4062 23.2904 79.0413 21.8917C77.6764 20.4931 76.9838 18.6058 76.9838 16.2856V15.8233C76.9838 13.4913 77.6764 11.6039 79.0413 10.2083C80.4062 8.81262 82.2241 8.10596 84.4425 8.10596C86.6695 8.10596 88.4904 8.81262 89.8582 10.2083C91.2231 11.6039 91.9158 13.4943 91.9158 15.8233V16.2856C91.9158 18.6058 91.2231 20.4931 89.8582 21.8917C88.4933 23.2904 86.6725 24 84.4425 24ZM84.4425 10.8354C83.2295 10.8354 82.2767 11.2742 81.6133 12.1369C80.9557 12.9937 80.6225 14.1803 80.6225 15.6643V16.4416C80.6225 17.9138 80.9499 19.1004 81.5987 19.9602C82.2504 20.8288 83.2091 21.2705 84.4425 21.2705C85.6758 21.2705 86.6316 20.8288 87.2862 19.9602C87.9351 19.0975 88.2624 17.9138 88.2624 16.4416V15.6643C88.2624 14.1803 87.9322 12.9937 87.2804 12.1369C86.6228 11.2742 85.6671 10.8354 84.4425 10.8354Z" fill="white"/>
<path d="M10.9019 3.6333L12.3661 7.5111L13.1173 7.00172L11.7144 3.43896L10.9019 3.6333Z" fill="white"/>
<path d="M93.4034 8.52103H96.8581L96.9574 10.2906H97.0422C97.4777 9.6723 98.0768 9.1747 98.8396 8.79192C99.6025 8.40915 100.45 8.2207 101.374 8.2207C102.902 8.2207 104.138 8.65648 105.082 9.52508C106.027 10.3966 106.497 11.9042 106.497 14.0536V23.5553H102.817V13.9564C102.817 12.9288 102.592 12.2045 102.145 11.7805C101.698 11.3565 101.061 11.1445 100.24 11.1445C99.5586 11.1445 98.939 11.3359 98.3779 11.7157C97.8167 12.0956 97.3841 12.6197 97.0831 13.2851V23.5553H93.4005V8.52103H93.4034Z" fill="white"/>
<defs>
<linearGradient id="paint0_linear_9_1101" x1="5.98643" y1="21.4126" x2="19.2767" y2="8.2204" gradientUnits="userSpaceOnUse">
<stop stop-color="#3254B5"/>
<stop offset="0.3122" stop-color="#94A0FB"/>
<stop offset="0.3992" stop-color="#8E9CF7"/>
<stop offset="0.5112" stop-color="#7E8FEC"/>
<stop offset="0.6368" stop-color="#647BD9"/>
<stop offset="0.7715" stop-color="#3F5EBE"/>
<stop offset="0.8144" stop-color="#3254B5"/>
<stop offset="1" stop-color="#3254B5"/>
</linearGradient>
<linearGradient id="paint1_linear_9_1101" x1="1.0277" y1="16.2497" x2="13.1992" y2="4.16803" gradientUnits="userSpaceOnUse">
<stop offset="0.00529101" stop-color="#3254B5"/>
<stop offset="0.1232" stop-color="#637AD8"/>
<stop offset="0.2328" stop-color="#94A0FB"/>
<stop offset="0.2896" stop-color="#ABA2D5"/>
<stop offset="0.4052" stop-color="#D8A58C"/>
<stop offset="0.4883" stop-color="#F4A75E"/>
<stop offset="0.53" stop-color="#FFA84D"/>
<stop offset="0.6023" stop-color="#FF8657"/>
<stop offset="0.7342" stop-color="#FF4D67"/>
<stop offset="0.8474" stop-color="#FF2373"/>
<stop offset="0.9362" stop-color="#FF097A"/>
<stop offset="0.9894" stop-color="#FF007D"/>
</linearGradient>
<linearGradient id="paint2_linear_9_1101" x1="7.8354" y1="20.2034" x2="5.06183" y2="18.6139" gradientUnits="userSpaceOnUse">
<stop stop-color="#2E00BF" stop-opacity="0"/>
<stop offset="0.3468" stop-color="#2E00BF" stop-opacity="0"/>
<stop offset="1" stop-color="#2E00BF"/>
</linearGradient>
<linearGradient id="paint3_linear_9_1101" x1="9.48871" y1="6.45285" x2="12.0614" y2="4.97845" gradientUnits="userSpaceOnUse">
<stop stop-color="white" stop-opacity="0"/>
<stop offset="0.0908" stop-color="#FCF9FB" stop-opacity="0.0365"/>
<stop offset="0.2159" stop-color="#F3E7EE" stop-opacity="0.0869"/>
<stop offset="0.3611" stop-color="#E4CADA" stop-opacity="0.1453"/>
<stop offset="0.5212" stop-color="#D0A1BD" stop-opacity="0.2097"/>
<stop offset="0.6937" stop-color="#B66D99" stop-opacity="0.2791"/>
<stop offset="0.8737" stop-color="#962E6D" stop-opacity="0.3516"/>
<stop offset="0.9941" stop-color="#7F004D" stop-opacity="0.4"/>
</linearGradient>
<linearGradient id="paint4_linear_9_1101" x1="4.37237" y1="16.4734" x2="1.81611" y2="12.0785" gradientUnits="userSpaceOnUse">
<stop stop-color="#2E00BF"/>
<stop offset="0.6532" stop-color="#2E00BF" stop-opacity="0"/>
<stop offset="1" stop-color="#2E00BF" stop-opacity="0"/>
</linearGradient>
<linearGradient id="paint5_linear_9_1101" x1="14.3917" y1="7.0073" x2="19.2851" y2="8.73487" gradientUnits="userSpaceOnUse">
<stop stop-color="#2E00BF"/>
<stop offset="0.6532" stop-color="#2E00BF" stop-opacity="0"/>
<stop offset="1" stop-color="#2E00BF" stop-opacity="0"/>
</linearGradient>
</defs>
</svg>
