<svg width="40" height="40" viewBox="0 0 40 40" fill="none" xmlns="http://www.w3.org/2000/svg">
<rect width="30" height="30" transform="translate(5 5)" fill="#251B59"/>
<rect x="0.5" y="0.5" width="39" height="39" rx="3.5" fill="#251B59" stroke="url(#paint0_linear_67_3188)"/>
<rect width="32" height="32" transform="translate(4 3)" fill="#251B59"/>
<path d="M10 19.75H8.5V28.75H10C10.4142 28.75 10.75 28.4142 10.75 28V20.5C10.75 20.0858 10.4142 19.75 10 19.75Z" fill="white"/>
<path d="M28.6405 20.7531C28.0989 20.4295 27.4426 20.4155 26.8882 20.7151L21.9768 23.3553C21.8621 24.2801 21.0803 25.0006 20.125 25.0006H17.11C16.9027 25.0006 16.735 24.8329 16.735 24.6256C16.735 24.4184 16.9027 24.2507 17.11 24.2507H20.125C20.7454 24.2507 21.25 23.7461 21.25 23.1259C21.25 22.5174 20.7635 22.0231 20.1594 22.0045C19.9349 22.0019 16.3105 22.001 16.3105 22.001L15.0303 20.7209C14.8896 20.5803 14.6989 20.5012 14.5 20.5012H11.5V28.0017H12.8242L15.25 28.7501C16.2578 29.0741 17.3358 29.5 18.5302 29.5C19.6101 29.5 20.6743 29.1419 21.5928 28.4381L28.7354 23.711C29.214 23.3829 29.5 22.841 29.5 22.2624C29.5 21.6378 29.1788 21.0739 28.6405 20.7531Z" fill="white"/>
<path d="M8.86401 16.6434C8.86401 16.6434 12.6215 18.9984 12.625 19.0004V13.968L8.5 11.6108V16.0004C8.5 16.2637 8.63806 16.5079 8.86401 16.6434Z" fill="white"/>
<path d="M17.2078 10.9139C17.1837 10.8951 13.3861 8.60712 13.3861 8.60712C13.1481 8.46429 12.8522 8.46429 12.6142 8.60712C12.6142 8.60712 8.81656 10.8951 8.79248 10.9139L13.0002 13.3184L17.2078 10.9139Z" fill="white"/>
<path d="M13.375 19.0004C13.3785 18.9984 17.136 16.6434 17.136 16.6434C17.3619 16.5079 17.5 16.2637 17.5 16.0004V11.6108L13.375 13.968V19.0004Z" fill="white"/>
<path d="M28 19C28.4146 19 28.75 18.6646 28.75 18.25V12.25H19.75V18.25C19.75 18.6646 20.0854 19 20.5 19H28Z" fill="white"/>
<path d="M28.75 8.5H19.75C19.3354 8.5 19 8.83545 19 9.25V10.75C19 11.1646 19.3354 11.5 19.75 11.5H28.75C29.1646 11.5 29.5 11.1646 29.5 10.75V9.25C29.5 8.83545 29.1646 8.5 28.75 8.5Z" fill="white"/>
<defs>
<linearGradient id="paint0_linear_67_3188" x1="-2.90547" y1="33.0092" x2="28.7216" y2="-8.06413" gradientUnits="userSpaceOnUse">
<stop stop-color="#6733FF"/>
<stop offset="0.0834" stop-color="#8E51BD"/>
<stop offset="0.1934" stop-color="#BD766D"/>
<stop offset="0.2839" stop-color="#DF9132"/>
<stop offset="0.3504" stop-color="#F5A20E"/>
<stop offset="0.3857" stop-color="#FDA800"/>
<stop offset="0.5292" stop-color="#FE7329"/>
<stop offset="0.6795" stop-color="#FE424F"/>
<stop offset="0.8118" stop-color="#FF1F6A"/>
<stop offset="0.9196" stop-color="#FF097B"/>
<stop offset="0.9894" stop-color="#FF0181"/>
</linearGradient>
</defs>
</svg>
