<svg width="16" height="20" viewBox="0 0 16 20" fill="none" xmlns="http://www.w3.org/2000/svg">
<path d="M4.2075 17.092C5.23979 18.8794 7.16315 19.9897 9.22725 19.9897C12.4235 19.9897 15.0239 17.3893 15.0239 14.193V9.07508C15.0239 8.56507 14.609 8.15011 14.0989 8.15011C13.5889 8.15011 13.174 8.56507 13.174 9.07508V9.81506C13.174 10.0194 13.0083 10.185 12.804 10.185C12.5997 10.185 12.434 10.0194 12.434 9.81506V8.15011C12.434 7.64009 12.0191 7.22513 11.5091 7.22513C10.999 7.22513 10.5841 7.64009 10.5841 8.15011V9.63005C10.5841 9.83437 10.4184 10 10.2141 10C10.0098 10 9.84415 9.83437 9.84415 9.63005V7.41017C9.84415 6.90016 9.42919 6.4852 8.91917 6.4852C8.40916 6.4852 7.9942 6.90016 7.9942 7.41017V9.63009C7.9942 9.83441 7.82855 10.0001 7.62423 10.0001C7.41991 10.0001 7.25426 9.83441 7.25426 9.63009V2.78533C7.25426 2.27531 6.8393 1.86035 6.32929 1.86035C5.81927 1.86035 5.40431 2.27531 5.40431 2.78533V11.6123C5.40431 12.0124 5.16982 12.38 4.80696 12.5488C4.31864 12.7761 3.7465 12.5955 3.47686 12.1287L2.36672 10.2058C1.90774 9.41083 0.887398 9.1376 0.0924427 9.59638C0.00409697 9.64742 -0.0262622 9.76078 0.0247786 9.8492L4.2075 17.092Z" fill="#FDA900"/>
<path d="M4.66467 2.78563C4.66467 1.8676 5.41159 1.12068 6.32962 1.12068C7.24765 1.12068 7.99457 1.8676 7.99457 2.78563V5.00555C8.68295 4.48789 9.10451 3.66808 9.10451 2.78563C9.10447 1.25554 7.85967 0.0107422 6.32958 0.0107422C4.79949 0.0107422 3.55469 1.25554 3.55469 2.78563C3.55469 3.66812 3.97628 4.48789 4.66463 5.00555L4.66467 2.78563Z" fill="#FDA900"/>
</svg>
