<svg width="24" height="24" viewBox="0 0 24 24" fill="none" xmlns="http://www.w3.org/2000/svg">
<g clip-path="url(#clip0_9_1476)">
<path d="M20.4207 2H3.57858C2.70655 2 1.99963 2.70692 1.99963 3.57895V20.4211C1.99963 21.2931 2.70655 22 3.57858 22H20.4207C21.2927 22 21.9996 21.2931 21.9996 20.4211V3.57895C21.9996 2.70692 21.2927 2 20.4207 2Z" fill="#03A9F4"/>
<path d="M18.4772 7.9826C17.99 8.1954 17.4746 8.33677 16.9469 8.40234C17.5031 8.07251 17.9189 7.54999 18.1154 6.93392C17.5948 7.24291 17.0251 7.46053 16.4311 7.57734C16.0671 7.18806 15.5944 6.91733 15.0745 6.80035C14.5545 6.68337 14.0114 6.72556 13.5158 6.92143C13.0201 7.11731 12.5949 7.4578 12.2954 7.89862C11.9959 8.33944 11.836 8.86018 11.8364 9.39313C11.8345 9.59655 11.8553 9.79955 11.8982 9.99839C10.8416 9.94649 9.80785 9.67227 8.86443 9.19365C7.92101 8.71502 7.08917 8.04275 6.42325 7.22076C6.08096 7.80551 5.97491 8.4989 6.12679 9.15923C6.27866 9.81955 6.67699 10.3969 7.24035 10.7734C6.81986 10.7621 6.40827 10.6497 6.04035 10.4458V10.4747C6.04154 11.0876 6.25369 11.6815 6.64116 12.1564C7.02862 12.6313 7.56777 12.9584 8.16798 13.0826C7.94084 13.1423 7.70677 13.1715 7.47193 13.1694C7.30283 13.1726 7.13389 13.1576 6.96798 13.1247C7.13994 13.6518 7.471 14.1127 7.91562 14.444C8.36024 14.7753 8.89658 14.9607 9.45088 14.9747C8.51157 15.7089 7.35361 16.1077 6.16141 16.1076C5.94898 16.1094 5.73667 16.0971 5.52588 16.0708C6.7415 16.8545 8.15846 17.2686 9.60483 17.2629C14.493 17.2629 17.1654 13.2142 17.1654 9.70497C17.1654 9.58786 17.1654 9.47471 17.1561 9.36155C17.6766 8.98594 18.1242 8.51866 18.4772 7.9826Z" fill="white"/>
</g>
<defs>
<clipPath id="clip0_9_1476">
<rect width="24" height="24" fill="white" transform="translate(-0.000366211)"/>
</clipPath>
</defs>
</svg>
